<?xml version="1.0" standalone="no"?>
<!DOCTYPE svg PUBLIC "-//W3C//DTD SVG 20010904//EN"
 "http://www.w3.org/TR/2001/REC-SVG-20010904/DTD/svg10.dtd">
<svg version="1.0" xmlns="http://www.w3.org/2000/svg"
 width="512.000000pt" height="512.000000pt" viewBox="0 0 512.000000 512.000000"
 preserveAspectRatio="xMidYMid meet">

<g transform="translate(0.000000,512.000000) scale(0.100000,-0.100000)"
fill="#000000" stroke="none">
<path d="M2330 5110 c-494 -48 -950 -230 -1350 -538 -195 -150 -448 -432 -594
-662 -63 -99 -186 -351 -230 -471 -49 -134 -102 -339 -128 -499 -32 -193 -31
-563 0 -760 45 -275 116 -498 237 -745 132 -269 269 -460 489 -681 221 -220
412 -357 681 -489 247 -121 469 -192 745 -237 195 -31 565 -31 760 0 276 45
498 116 745 237 269 132 460 269 681 489 220 221 357 412 489 681 88 179 132
296 180 476 63 240 78 371 78 649 0 278 -15 409 -78 649 -48 180 -92 297 -180
476 -132 269 -269 460 -489 681 -221 220 -412 357 -681 489 -246 121 -474 193
-740 235 -147 23 -475 34 -615 20z m570 -185 c678 -100 1284 -488 1662 -1065
81 -124 192 -345 243 -484 48 -130 99 -332 121 -481 25 -167 25 -503 0 -670
-76 -505 -300 -960 -651 -1324 -306 -317 -701 -547 -1129 -656 -214 -54 -342
-69 -586 -69 -305 0 -551 42 -816 139 -128 47 -355 159 -469 232 l-89 57 69
12 c106 18 153 32 231 70 l71 35 54 -37 c188 -126 395 -180 654 -171 249 10
449 79 621 215 46 36 55 39 135 46 102 8 225 36 309 70 96 39 173 91 272 183
118 109 198 149 331 168 108 15 174 44 233 103 131 131 130 347 -3 480 l-43
43 17 87 c35 179 18 497 -43 802 -107 538 -403 1304 -608 1575 -236 311 -582
488 -956 489 -205 0 -351 -54 -469 -173 -102 -102 -148 -211 -158 -371 -11
-184 52 -364 170 -484 106 -108 237 -159 412 -159 137 -1 241 30 371 108 34
20 64 15 64 -11 0 -9 -22 -86 -50 -170 -89 -276 -140 -594 -125 -785 l7 -86
-96 48 c-170 83 -347 119 -591 119 -299 0 -548 -69 -758 -210 l-87 -60 -47 36
c-162 124 -398 184 -909 232 l-80 7 14 100 c32 228 108 469 222 701 365 741
1083 1237 1915 1323 127 14 429 6 565 -14z m-237 -330 c237 -36 436 -140 603
-317 92 -97 137 -164 216 -323 207 -412 384 -946 464 -1395 32 -175 45 -499
25 -610 l-12 -68 -39 -6 c-41 -6 -80 -44 -80 -78 0 -29 27 -76 47 -82 10 -3
36 -8 58 -12 122 -20 184 -146 125 -252 -30 -53 -78 -78 -176 -91 -94 -12
-197 -48 -268 -94 -27 -17 -89 -68 -137 -113 -95 -89 -147 -123 -242 -159 -65
-24 -170 -47 -165 -36 2 3 20 36 41 74 35 60 38 70 28 98 -14 41 -38 58 -79
59 -42 0 -63 -22 -149 -155 -80 -122 -109 -154 -195 -211 -325 -217 -813 -192
-1090 55 -27 24 -87 102 -134 172 -46 70 -91 130 -100 133 -55 21 -124 -16
-124 -67 0 -30 36 -99 101 -192 27 -39 49 -74 49 -77 0 -10 -149 -56 -215 -67
-33 -6 -97 -13 -142 -17 l-83 -7 -91 89 c-447 435 -700 1006 -726 1635 -3 83
-2 148 3 151 5 3 70 1 144 -3 425 -26 758 -130 789 -247 14 -51 41 -74 87 -74
31 0 45 9 93 54 77 75 124 110 206 151 168 86 357 127 579 127 343 0 601 -101
751 -295 93 -119 145 -235 160 -359 5 -42 14 -65 30 -82 33 -33 84 -32 116 2
21 22 24 34 22 86 -5 119 -46 232 -144 393 -137 226 -127 604 28 1090 57 180
63 235 31 295 -35 64 -94 103 -166 108 -52 4 -64 0 -142 -41 -145 -75 -224
-94 -340 -77 -95 14 -167 47 -224 103 -177 178 -162 526 29 657 117 80 251
103 438 75z"/>
<path d="M3293 3490 c-12 -5 -29 -23 -38 -40 -16 -30 -15 -35 39 -193 120
-353 144 -639 69 -842 -36 -100 -40 -138 -14 -164 53 -53 112 -35 153 49 110
225 97 598 -33 978 -53 154 -74 197 -105 210 -29 14 -41 14 -71 2z"/>
<path d="M2599 1947 c-9 -7 -36 -36 -61 -65 -100 -116 -266 -218 -403 -247
-52 -11 -143 -15 -348 -15 l-279 0 -29 -29 c-38 -38 -38 -74 1 -113 l30 -29
317 3 c292 4 324 6 391 26 151 46 290 130 405 246 111 112 129 164 77 216 -23
23 -76 26 -101 7z"/>
</g>
</svg>
