<?xml version="1.0" standalone="no"?>
<!DOCTYPE svg PUBLIC "-//W3C//DTD SVG 20010904//EN"
 "http://www.w3.org/TR/2001/REC-SVG-20010904/DTD/svg10.dtd">
<svg version="1.0" xmlns="http://www.w3.org/2000/svg"
 width="512.000000pt" height="512.000000pt" viewBox="0 0 512.000000 512.000000"
 preserveAspectRatio="xMidYMid meet">

<g transform="translate(0.000000,512.000000) scale(0.100000,-0.100000)"
fill="#000000" stroke="none">
<path d="M761 4944 c-169 -45 -301 -180 -346 -351 -23 -86 -23 -3980 0 -4066
45 -173 178 -307 350 -352 52 -13 211 -15 1233 -15 1152 0 1174 0 1190 -20 17
-19 18 -18 79 18 35 20 63 41 63 46 0 4 -79 144 -175 311 -96 166 -175 312
-175 325 0 25 51 80 74 80 43 0 67 -27 156 -181 51 -88 101 -164 111 -169 31
-17 69 -11 94 15 l25 24 0 551 0 551 25 24 c32 33 78 33 110 0 l25 -24 0 -471
0 -471 25 -24 c32 -33 78 -33 110 0 24 23 25 28 25 175 0 147 1 152 25 175 32
33 78 33 110 0 24 -23 25 -28 25 -175 0 -147 1 -152 25 -175 32 -33 78 -33
110 0 24 23 25 31 25 135 0 104 1 112 25 135 32 33 78 33 110 0 24 -23 25 -31
25 -135 0 -104 1 -112 25 -135 32 -33 78 -33 110 0 22 21 25 33 25 95 0 62 3
74 25 95 32 33 78 33 110 0 l25 -24 0 -376 0 -375 80 0 80 0 0 376 c0 260 -4
389 -12 416 -14 48 -76 121 -118 138 l-30 12 0 1717 c0 1509 -2 1724 -15 1776
-45 172 -179 305 -352 350 -85 22 -3349 21 -3432 -1z m3449 -172 c72 -35 114
-75 151 -144 l34 -63 3 -1732 c2 -1647 1 -1732 -15 -1735 -11 -2 -38 14 -67
39 -26 24 -54 43 -62 43 -12 0 -14 249 -14 1665 0 1840 5 1707 -66 1761 l-37
29 -1657 0 -1657 0 -35 -27 c-74 -57 -68 128 -66 -2060 l3 -1965 29 -37 c53
-70 -18 -66 1165 -66 l1070 0 34 -58 c19 -31 40 -67 46 -80 l12 -22 -1143 2
-1143 3 -63 34 c-69 37 -109 79 -144 151 l-23 45 0 2005 0 2005 25 50 c43 86
125 154 215 176 17 4 779 6 1695 6 l1665 -2 45 -23z m-130 -1941 c0 -1532 -1
-1649 -17 -1655 -11 -5 -28 5 -52 28 -58 55 -97 70 -178 71 l-73 0 0 219 c0
139 -4 233 -12 258 -15 51 -76 120 -126 142 -26 12 -51 35 -71 66 -50 77 -172
184 -259 228 -42 21 -170 72 -284 113 l-208 74 0 95 0 95 64 47 c95 69 176
178 216 290 16 46 22 53 47 56 69 7 123 34 166 82 90 100 90 220 0 320 -42 46
-107 80 -155 80 -17 0 -18 12 -18 153 0 186 -15 263 -72 377 -106 211 -331
350 -568 350 -237 0 -465 -141 -569 -350 -56 -115 -71 -192 -71 -377 0 -135
-2 -153 -16 -153 -77 0 -189 -88 -212 -166 -25 -86 -9 -162 49 -228 44 -49 91
-75 156 -84 43 -7 45 -9 63 -60 40 -112 121 -221 216 -290 l64 -47 0 -95 0
-95 -193 -69 c-105 -38 -235 -89 -287 -113 -83 -40 -107 -57 -185 -137 -98
-98 -145 -175 -186 -301 -20 -63 -23 -94 -27 -327 l-4 -257 26 -25 25 -26 816
0 815 0 0 80 0 80 -125 0 c-69 0 -125 3 -126 8 0 4 -15 124 -33 267 -35 277
-35 268 9 329 14 18 16 18 50 -13 35 -30 66 -38 100 -24 10 3 56 65 102 137
47 72 87 133 89 135 5 5 120 -38 185 -70 63 -31 152 -99 174 -132 14 -22 13
-26 -33 -73 -28 -29 -52 -66 -60 -90 -9 -30 -12 -150 -12 -425 l0 -384 -30 37
c-107 129 -302 120 -390 -19 -53 -83 -49 -178 11 -275 l29 -48 -1010 0 -1010
0 0 1920 0 1920 1600 0 1600 0 0 -1649z m-1485 1314 c217 -57 365 -250 365
-477 l0 -68 -27 11 c-32 12 -70 45 -86 74 -6 11 -21 60 -33 110 -25 98 -46
125 -96 125 -40 0 -78 -40 -78 -81 0 -62 -23 -113 -75 -164 -70 -70 -92 -75
-349 -75 l-216 0 0 68 c0 318 295 555 595 477z m265 -677 c25 -9 57 -19 73
-22 l27 -6 0 -188 c0 -136 -4 -204 -15 -247 -67 -256 -329 -415 -580 -350
-172 45 -305 179 -350 352 -11 41 -15 111 -15 244 l0 187 248 4 248 3 75 37
c41 20 89 52 107 71 l33 34 52 -51 c31 -31 70 -58 97 -68z m-1020 -268 c0 -65
-3 -80 -15 -80 -27 0 -65 47 -65 80 0 33 38 80 65 80 12 0 15 -15 15 -80z
m1335 55 c16 -15 25 -36 25 -55 0 -33 -38 -80 -65 -80 -12 0 -15 15 -15 80 0
90 11 100 55 55z m-695 -770 c47 0 102 4 123 8 l37 8 0 -65 0 -66 -50 -25
c-37 -18 -65 -25 -110 -25 -45 0 -73 7 -110 25 l-50 25 0 66 0 65 38 -8 c20
-4 75 -8 122 -8z m-205 -272 c19 -9 35 -19 35 -23 0 -3 -31 -36 -69 -74 l-69
-69 -36 56 c-19 30 -37 60 -38 67 -3 10 97 56 129 59 7 0 28 -7 48 -16z m525
-7 c36 -14 64 -30 62 -36 -1 -7 -19 -37 -38 -67 l-36 -56 -69 69 c-38 38 -69
71 -69 74 0 7 60 38 75 39 6 0 39 -10 75 -23z m-781 -216 c46 -72 92 -135 102
-140 32 -18 68 -11 104 21 20 18 37 30 39 28 2 -2 14 -21 28 -41 l24 -37 -27
-228 c-15 -125 -31 -247 -34 -270 l-6 -43 -165 0 -164 0 0 200 0 200 -80 0
-80 0 0 -200 0 -200 -160 0 -160 0 0 163 c0 102 6 187 15 230 29 136 134 285
249 352 49 29 201 94 221 95 6 0 48 -59 94 -130z m515 81 l49 -50 -33 -50
c-29 -47 -35 -51 -70 -51 -35 0 -41 4 -70 51 l-33 50 49 50 c26 27 51 49 54
49 3 0 28 -22 54 -49z m-40 -348 c3 -21 15 -112 26 -203 11 -91 23 -182 26
-202 l6 -38 -72 0 -72 0 6 38 c3 20 15 111 26 202 27 218 30 240 40 240 5 0
11 -17 14 -37z"/>
<path d="M2400 880 l0 -80 80 0 80 0 0 80 0 80 -80 0 -80 0 0 -80z"/>
<path d="M2160 3280 l0 -80 80 0 80 0 0 80 0 80 -80 0 -80 0 0 -80z"/>
<path d="M2640 3280 l0 -80 80 0 80 0 0 80 0 80 -80 0 -80 0 0 -80z"/>
<path d="M2240 3024 c0 -47 28 -102 75 -149 73 -74 151 -92 248 -59 77 26 157
132 157 208 0 13 -12 16 -77 16 -78 0 -78 0 -93 -33 -18 -38 -58 -55 -97 -41
-16 5 -34 23 -43 41 -15 33 -15 33 -92 33 -66 0 -78 -3 -78 -16z"/>
</g>
</svg>
