<?xml version="1.0" standalone="no"?>
<!DOCTYPE svg PUBLIC "-//W3C//DTD SVG 20010904//EN"
 "http://www.w3.org/TR/2001/REC-SVG-20010904/DTD/svg10.dtd">
<svg version="1.0" xmlns="http://www.w3.org/2000/svg"
 width="512.000000pt" height="512.000000pt" viewBox="0 0 512.000000 512.000000"
 preserveAspectRatio="xMidYMid meet">

<g transform="translate(0.000000,512.000000) scale(0.100000,-0.100000)"
fill="#000000" stroke="none">
<path d="M2177 4950 c-420 -44 -839 -223 -1168 -498 -538 -451 -824 -1148
-759 -1847 35 -374 158 -708 386 -1050 257 -388 379 -754 401 -1211 6 -126 8
-140 29 -161 l23 -23 1031 0 1031 0 24 25 c25 24 25 27 25 200 l0 175 495 0
496 0 24 25 25 24 0 496 0 495 255 0 256 0 24 25 c14 13 25 33 25 44 0 12 -54
272 -119 578 -92 433 -120 583 -125 668 -41 694 -404 1323 -981 1697 -247 161
-527 269 -819 319 -139 24 -438 33 -579 19z m424 -160 c236 -24 467 -90 676
-194 204 -101 346 -201 507 -356 369 -355 583 -823 612 -1338 5 -94 27 -214
111 -607 57 -269 106 -500 110 -512 l5 -23 -246 0 -247 0 -24 -25 -25 -24 0
-496 0 -495 -640 0 -640 0 0 -80 0 -80 120 0 120 0 0 -120 0 -120 -919 0 -919
0 -7 87 c-36 467 -164 841 -419 1226 -250 378 -356 691 -372 1102 -19 475 140
949 443 1325 72 89 243 257 328 321 411 314 920 460 1426 409z"/>
<path d="M2717 4562 c-26 -26 -47 -52 -47 -57 0 -5 21 -30 46 -56 l46 -47
-393 -5 c-353 -4 -403 -6 -479 -25 -259 -62 -447 -167 -631 -351 -147 -147
-237 -287 -304 -471 -109 -302 -95 -658 36 -947 15 -35 30 -63 33 -63 7 0 136
71 136 75 0 1 -13 31 -29 66 -36 81 -67 192 -80 292 -81 599 341 1162 939
1252 69 11 190 15 435 15 l339 0 -47 -48 c-26 -26 -47 -51 -47 -55 0 -10 98
-107 108 -107 5 0 65 58 135 128 112 113 127 133 127 162 0 29 -15 49 -127
162 -70 70 -132 128 -138 128 -6 0 -32 -22 -58 -48z"/>
<path d="M2055 3993 c-44 -7 -61 -27 -97 -114 -29 -73 -35 -80 -73 -95 -40
-15 -43 -15 -118 15 -43 17 -88 31 -101 31 -51 0 -216 -166 -216 -217 0 -13
14 -58 31 -99 31 -73 31 -74 14 -117 -16 -41 -21 -46 -95 -76 -114 -47 -115
-49 -115 -195 0 -153 5 -161 114 -206 76 -31 82 -36 97 -76 16 -42 16 -44 -15
-118 -17 -41 -31 -86 -31 -99 0 -51 165 -217 216 -217 13 0 58 14 101 31 75
30 78 30 118 15 38 -15 44 -22 74 -96 44 -109 54 -115 201 -115 147 0 157 6
201 115 31 75 36 81 75 96 42 16 44 16 118 -15 41 -17 86 -31 99 -31 52 0 217
165 217 217 0 13 -14 58 -31 99 -31 74 -31 76 -15 118 15 39 21 44 96 75 109
44 115 54 115 201 0 146 -6 157 -114 201 -75 30 -81 35 -96 76 -17 43 -16 44
14 117 17 41 31 86 31 99 0 52 -165 217 -217 217 -13 0 -58 -14 -99 -31 -74
-31 -76 -31 -118 -15 -39 15 -44 21 -74 95 -45 109 -50 112 -174 116 -57 2
-116 1 -133 -2z m185 -235 l35 -82 80 -34 c112 -48 122 -48 206 -13 l74 31 32
-33 33 -32 -31 -74 c-35 -84 -35 -94 13 -206 l34 -80 82 -35 82 -35 0 -45 0
-45 -82 -35 -82 -35 -34 -80 c-48 -112 -48 -122 -13 -206 l31 -74 -33 -32 -32
-33 -74 31 c-84 35 -94 35 -206 -13 l-80 -34 -35 -82 -35 -82 -45 0 -45 0 -35
82 -35 82 -80 34 c-112 48 -122 48 -206 13 l-74 -31 -32 33 -33 32 31 74 c35
84 35 94 -13 206 l-34 80 -82 35 -82 35 0 45 0 45 82 35 82 35 34 80 c48 112
48 122 13 206 l-31 74 33 32 32 33 74 -31 c84 -35 94 -35 206 13 l80 34 35 82
35 82 45 0 45 0 35 -82z"/>
<path d="M2066 3510 c-63 -16 -153 -70 -197 -117 -22 -24 -55 -74 -72 -111
-29 -61 -32 -76 -32 -163 0 -90 2 -99 37 -171 45 -91 103 -147 196 -191 61
-29 76 -32 162 -32 86 0 101 3 162 32 93 44 151 100 196 191 35 72 37 81 37
172 0 91 -2 100 -37 172 -68 136 -188 217 -336 224 -42 2 -94 -1 -116 -6z
m168 -162 c55 -16 138 -99 154 -154 28 -94 8 -169 -63 -239 -51 -52 -102 -75
-165 -75 -124 0 -240 116 -240 240 0 63 23 114 75 165 70 71 145 90 239 63z"/>
<path d="M3236 2808 c-15 -50 -44 -123 -72 -180 -19 -37 -34 -72 -34 -77 0 -9
115 -81 129 -81 15 0 131 266 131 301 0 5 -26 16 -57 25 -32 8 -66 18 -76 20
-9 3 -19 -1 -21 -8z"/>
<path d="M1185 2445 c-27 -20 -57 -40 -64 -45 -19 -10 36 -84 142 -188 l73
-73 52 61 52 61 -63 62 c-35 34 -81 83 -103 110 l-39 48 -50 -36z"/>
<path d="M2984 2363 c-28 -32 -74 -76 -102 -98 -28 -22 -51 -43 -52 -47 0 -11
83 -127 92 -128 10 0 217 200 228 221 8 14 0 26 -48 63 -31 25 -59 46 -62 46
-3 0 -28 -26 -56 -57z"/>
<path d="M1518 2109 c-21 -33 -38 -63 -38 -68 0 -17 263 -141 299 -141 7 0 46
121 46 144 0 5 -23 17 -52 27 -28 9 -87 36 -130 58 -43 23 -81 41 -83 41 -3
-1 -22 -28 -42 -61z"/>
<path d="M2625 2103 c-38 -18 -101 -43 -138 -54 -43 -13 -67 -25 -64 -32 2 -7
10 -38 18 -71 7 -32 18 -60 25 -63 26 -10 304 98 304 117 0 7 -68 132 -73 136
-1 1 -33 -14 -72 -33z"/>
<path d="M1962 1936 c-6 -39 -9 -73 -6 -75 16 -16 283 -28 318 -15 13 5 15 17
10 63 -10 106 6 96 -162 97 l-149 1 -11 -71z"/>
<path d="M1840 640 l0 -80 80 0 80 0 0 80 0 80 -80 0 -80 0 0 -80z"/>
<path d="M2160 640 l0 -80 80 0 80 0 0 80 0 80 -80 0 -80 0 0 -80z"/>
<path d="M2480 640 l0 -80 80 0 80 0 0 80 0 80 -80 0 -80 0 0 -80z"/>
</g>
</svg>
