<?xml version="1.0" encoding="utf-8"?>
<!-- Generator: Adobe Illustrator 26.1.0, SVG Export Plug-In . SVG Version: 6.00 Build 0)  -->
<svg version="1.1" id="Layer_1" xmlns="http://www.w3.org/2000/svg" xmlns:xlink="http://www.w3.org/1999/xlink" x="0px" y="0px"
	 viewBox="0 0 456.2 512" style="enable-background:new 0 0 456.2 512;" xml:space="preserve">
	<style type="text/css">
		.st0C-PP{fill:#659AD2;}
		.st1C-PP{fill:#004482;}
		.st2C-PP{fill:#FEFEFF;}
		.st3C-PP{fill:#015A9C;}
		.st4C-PP{fill:#014583;}
		.st5C-PP{fill:#FDFDFE;}
		.st6C-PP{fill:#FDFEFE;}
	</style>
	<path class="st0C-PP" d="M214.1,1c9,0,18,0,27.2,0.3c9.8,5.8,19.6,11.3,29.2,16.8c22.7,13,45.4,26,68,39.1c29.7,17.2,59.3,34.5,89,51.6
		c9,5.2,17.9,10.2,22.3,20.3c-28.1,16.2-55.9,32.2-83.7,48.2c-2.1,1.2-4.5,1.9-7,2.6c-0.9-1-1.5-1.8-2-2.6
		c-33.8-53.6-94-80.2-156.5-69.4c-86.2,15-142.5,103.9-118.9,188.3c3.5,12.5,9.5,24.4,14.2,36.8c-30.1,17.6-60,34.9-90.2,52
		c-4-7.8-5.7-15.7-5.7-24.3c0.2-70.8,0-141.6,0.2-212.4c0-10.3,4.3-19.3,11.1-26.9c8.4-9.4,20.1-13.8,30.6-20.1
		c15.9-9.6,32.2-18.4,48.2-27.7c16.2-9.4,32.3-18.9,48.5-28.3c14.2-8.3,28.3-16.6,42.6-24.7c10.7-6.1,21.7-11.8,32.5-17.7
		C214,2.6,214,1.6,214.1,1z"/>
	<path class="st1C-PP" d="M450.2,385.1c-4.5,9.5-12.9,14.7-21.6,19.7c-18.9,10.8-37.7,21.8-56.5,32.6c-18.6,10.7-37.2,21.3-55.8,32
		c-17.7,10.2-35.3,20.6-53,30.8c-7.1,4.1-14.3,8.1-21.3,12.5c-9,0.4-18,0.4-27.5,0.4c-3.5-2-6.3-4.2-9.5-6
		c-31.3-18-62.8-36-94.1-54.1c-28.6-16.5-57-33.4-85.7-49.7c-7.8-4.5-14.7-9.5-19.2-17.8c29.7-17.6,59.7-34.9,90.1-52.3
		c36.4,55.9,87.3,82.1,153.6,73.5c48-6.2,84.4-32,109.7-73.6c12,6.8,23.7,13.4,35.4,20.2C413.4,363.8,431.8,374.5,450.2,385.1z"/>
	<path class="st2C-PP" d="M359.2,333c-24.9,41.6-61.3,67.5-109.3,73.7c-66.3,8.6-117.2-17.6-153.4-73.8c-5.2-12.3-11.2-24.2-14.7-36.7
		C58.2,211.8,114.5,123,200.7,107.9c62.4-10.9,122.6,15.8,156.4,69.4c0.5,0.8,1.1,1.6,1.9,3c-0.5,1.1-1.2,1.9-2,2.4
		c-20.2,11.7-40.5,23.5-60.7,35.2c-1,0.6-2.1,0.8-3.2,0.8c-15.6-27.3-48.6-42.2-79-36c-34.6,7-59.1,34.4-61.7,69.7
		c-1.1,14.8,1.7,29.1,10.2,42.2c0.5,1.2,0.9,2.2,1.4,3c16.1,25.7,46.5,39.6,76.5,34.3c23-4.1,40.9-16,53.1-36.5
		C315.7,307.8,337.5,320.4,359.2,333z"/>
	<path class="st3C-PP" d="M359.6,333.1c-22.1-12.7-43.8-25.2-66.2-38.1c-11.2-6.5-21.7-12.7-32.3-19c-10.7-6.3-21.4-12.7-31.8-19.4
		c10.8-6.4,21.4-12.5,32-18.7c10.7-6.3,21.3-12.7,31.9-19c1.1-0.4,2.2-0.6,3.2-1.1c20.3-11.7,40.5-23.4,60.7-35.2
		c0.8-0.5,1.5-1.2,2.3-2.2c2.3-1.3,4.7-1.9,6.8-3.1c27.8-16,55.6-32,83.7-48.2c2.3,6.3,6,12.8,6,19.3c0.4,71.1,0.2,142.3,0.3,213.4
		c0,8.2-1.8,15.6-5.7,23c-18.7-10.4-37.1-21-55.6-31.6C383.2,346.5,371.6,339.8,359.6,333.1 M356.5,231.8c-3.4,0-6.8,0-10.7,0
		c0,6,0,11.2,0,16.9c-5.7,0-11,0-16.5,0c0,5.7,0,10.9,0,16.8c5.6,0,11,0,16.8,0c0,5.9,0,11.1,0,16.3c5.8,0,11.2,0,17,0
		c0-5.6,0-10.9,0-16.6c5.7,0,11,0,16.2,0c0-5.8,0-11,0-16.7c-5.6,0-10.9,0-16.6,0c0-5.8,0-11,0-16.7
		C360.8,231.8,359.1,231.8,356.5,231.8 M426.1,233.7c-0.6-0.6-1.1-1.8-1.7-1.8c-4.9-0.1-9.9-0.1-15.2-0.1c0,5.8,0,11.1,0,17
		c-5.8,0-11.2,0-16.6,0c0,5.8,0,10.9,0,16.6c5.6,0,11,0,16.8,0c0,5.9,0,11.2,0,16.4c5.8,0,11.2,0,17,0c0-5.6,0-10.8,0-16.7
		c5.8,0,11.1,0,16.3,0c0-5.9,0-11.1,0-16.7c-5.7,0-10.9,0-16.5,0C426.1,243.6,426.1,239.1,426.1,233.7z"/>
	<path class="st0C-PP" d="M293.1,218.5c-10.6,6.7-21.2,13.1-31.9,19.4c-10.6,6.2-21.2,12.3-32.3,18.8c-20.8,12-41.1,23.7-61.4,35.3
		c-1.5,0.9-3.3,1.4-4.9,2.1c-8.4-12.7-11.2-27-10.1-41.8c2.6-35.4,27.1-62.7,61.7-69.7C244.5,176.3,277.5,191.2,293.1,218.5z"/>
	<path class="st4C-PP" d="M162.6,294.4c1.6-1.1,3.3-1.6,4.9-2.5c20.3-11.6,40.6-23.3,61.2-35c11,6.3,21.7,12.7,32.4,19
		c10.6,6.3,21.2,12.5,32,19c-11.6,20.7-29.6,32.7-52.5,36.8c-30,5.3-60.4-8.6-76.5-34.3C163.5,296.6,163.1,295.7,162.6,294.4z"/>
	<path class="st5C-PP" d="M357,231.8c2.1,0,3.8,0,5.8,0c0,5.7,0,10.9,0,16.7c5.7,0,11,0,16.6,0c0,5.7,0,10.9,0,16.7c-5.3,0-10.5,0-16.2,0
		c0,5.7,0,11,0,16.6c-5.9,0-11.2,0-17,0c0-5.2,0-10.5,0-16.3c-5.8,0-11.2,0-16.8,0c0-5.8,0-11.1,0-16.8c5.5,0,10.8,0,16.5,0
		c0-5.7,0-10.9,0-16.9C349.7,231.8,353.1,231.8,357,231.8z"/>
	<path class="st6C-PP" d="M426.1,234.2c0,4.9,0,9.4,0,14.3c5.6,0,10.9,0,16.5,0c0,5.6,0,10.8,0,16.7c-5.2,0-10.6,0-16.3,0
		c0,5.9,0,11.1,0,16.7c-5.8,0-11.1,0-17,0c0-5.3,0-10.5,0-16.4c-5.8,0-11.2,0-16.8,0c0-5.7,0-10.8,0-16.6c5.4,0,10.8,0,16.6,0
		c0-5.9,0-11.2,0-17c5.4,0,10.3-0.1,15.2,0.1C424.9,231.9,425.5,233.1,426.1,234.2z"/>
</svg>
