<?xml version="1.0" encoding="utf-8"?>
<!-- Generator: Adobe Illustrator 26.1.0, SVG Export Plug-In . SVG Version: 6.00 Build 0)  -->
<svg version="1.1" id="Layer_1" xmlns="http://www.w3.org/2000/svg" xmlns:xlink="http://www.w3.org/1999/xlink" x="0px" y="0px"
	 viewBox="0 0 455.9 512" style="enable-background:new 0 0 455.9 512;" xml:space="preserve">
	<style type="text/css">
		.st0C-SHARP{fill:#B14796;}
		.st1C-SHARP{fill:#782379;}
		.st2C-SHARP{fill:#FFFEFF;}
		.st3C-SHARP{fill:#962D87;}
		.st4C-SHARP{fill:#782479;}
		.st5C-SHARP{fill:#FDFBFD;}
		.st6C-SHARP{fill:#9A358C;}
	</style>
	<path class="st0C-SHARP" d="M214.9,1c8.4,0,16.7,0,25.2,0.3c5.9,3.2,11.9,5.9,17.5,9.2c18.5,10.6,36.9,21.5,55.5,32.1
		c18.5,10.7,37.1,21.2,55.7,31.9c19.1,11,38.1,22.1,57.2,33.1c9.6,5.6,19.6,10.7,24.4,21.5c-1.5,0.6-2.8,1.1-3.9,1.7
		c-24.4,14.1-48.8,28.3-73.2,42.3c-4.7,2.7-9.8,4.7-14.9,6.8c-47.7-78.7-149.1-96.7-218.7-45.4c-46.8,34.4-67,81.7-61.9,139.6
		c1.9,21,9.1,40.4,18.8,58.9c-2.1,0.9-4,1.7-5.7,2.7c-24.5,14.1-49,28.3-73.5,42.4c-4,2.3-8.3,4.1-12.7,5.9
		c-1.7-5.4-4.4-10.5-4.4-15.7C0,294.2-0.1,220,0.3,145.9c0.1-11.6,5.2-22.1,15.3-28.8c8.3-5.6,17-10.5,25.6-15.5
		C62,89.5,82.7,77.4,103.6,65.4C122,54.8,140.5,44.2,159,33.8s37.1-20.6,55.7-30.9C214.7,2.5,214.7,1.6,214.9,1z"/>
	<path class="st1C-SHARP" d="M449.9,386.1c-3,7.3-9,11.7-15.4,15.5c-20.7,12.2-41.6,23.9-62.4,35.9c-23.1,13.3-46,26.8-69.2,40
		c-19.4,11.1-39,21.8-58.5,32.7c-1.2,0.7-2.5,1.4-3.7,2.4c-8.3,0.4-16.6,0.4-25.4,0.4c-0.8-0.6-1-1.5-1.5-1.8
		c-13.2-7.2-26.6-14.2-39.8-21.6c-16.9-9.5-33.6-19.4-50.4-29.1c-18.5-10.7-37.1-21.2-55.6-31.9c-16.4-9.4-32.7-18.9-49-28.5
		c-6.2-3.7-11.1-8.7-14.3-15.6c4.1-2.4,8.4-4.2,12.4-6.5c24.5-14.1,49-28.3,73.5-42.4c1.7-1,3.6-1.7,6-2.4c1.1,1,1.6,1.9,2.2,2.7
		c45,73.2,141.5,94.4,212.8,46.9c19.6-13,35-30,47.6-49.9c2.3,1,4.3,1.8,6.2,2.8c23.3,13.4,46.5,26.9,69.7,40.4
		C440.3,379.3,445,382.8,449.9,386.1z"/>
	<path class="st2C-SHARP" d="M359,333c-12.3,20-27.7,36.9-47.3,50c-71.3,47.4-167.8,26.2-212.8-47c-0.5-0.8-1.1-1.7-1.8-2.8
		c-10.3-18.7-17.5-38.1-19.4-59.1c-5.2-57.9,15.1-105.2,61.9-139.6c69.6-51.2,171-33.3,218.7,45.8c-1.4,1.8-3,3.2-4.8,4.2
		c-20.2,11.6-40.3,23-60.7,34.3c-28.6-46.9-93.3-49.2-125.2-6.8c-17.9,23.8-20,59.2-4.8,82.5c0.7,1.5,1.4,2.7,2.1,3.8
		c32.3,48.4,101.8,43.7,128.6-4c21.4,12.3,42.5,24.4,63.6,36.6C357.9,331.3,358.4,332.2,359,333z"/>
	<path class="st3C-SHARP" d="M359.3,333c-1-0.8-1.4-1.8-2.2-2.2c-21.1-12.2-42.2-24.4-63.9-36.8c-10.6-6-20.5-11.8-30.4-17.6
		c-11-6.5-22-13.1-32.8-19.9c4.7-3.2,9.3-6.2,14-9c16.3-9.6,32.6-19,49-28.5c20.2-11.5,40.4-23,60.5-34.6c1.8-1,3.4-2.4,5.1-4
		c4.9-2.7,10-4.7,14.7-7.4c24.5-14,48.8-28.2,73.2-42.3c1.1-0.7,2.4-1.1,3.9-1.7c2.1,6.3,5.3,12.7,5.3,19.1
		c0.4,71.5,0.2,142.9,0.3,214.4c0,8.3-1.4,16-5.7,23.4c-5.2-3.1-10-6.7-15-9.7c-23.2-13.6-46.4-27-69.7-40.4
		C363.7,334.8,361.6,334,359.3,333 M422,280.1c0-4.3,0-8.6,0-13.5c-4.1,0-7.8,0-11.8,0c0-6.3,0-12,0-18.4c4,0,7.7,0,11.5,0
		c0-5.2,0-9.8,0-15c-4,0-7.7,0-12,0c0-4.3,0-8.1,0-11.8c-5.2,0-9.8,0-14.9,0c0,4,0,7.8,0,11.5c-6.3,0-12,0-18.3,0c0-4.1,0-7.8,0-11.4
		c-5.2,0-9.8,0-14.9,0c0,4.1,0,7.8,0,12c-4.2,0-7.8,0-11.5,0c0,5.2,0,9.9,0,15c4,0,7.6,0,11.4,0c0,6.2,0,11.9,0,18.3
		c-4,0-7.8,0-11.5,0c0,5.2,0,9.8,0,14.6c4,0.2,7.8,0.4,11.9,0.6c0,4.1,0,7.7,0,11.5c5.1,0,9.9,0,15.1,0c0-4.1,0-7.8,0-11.5
		c6.2,0,11.8,0,18,0c0,4,0,7.7,0,11.7c5.2,0,9.7,0,14.9,0c0-4,0-7.7,0-11.5C414.2,281.7,417.9,281.3,422,280.1z"/>
	<path class="st0C-SHARP" d="M292.7,218.7c-16.2,9.8-32.5,19.3-48.8,28.8c-4.7,2.8-9.2,5.8-14.3,9c-3.3,1.7-6.3,2.8-9,4.4
		c-19.3,11-38.6,22.1-57.9,33.2c-15.1-22.9-13.1-58.4,4.8-82.2C199.5,169.5,264.2,171.8,292.7,218.7z"/>
	<path class="st4C-SHARP" d="M162.8,294.4c19.2-11.4,38.5-22.5,57.8-33.5c2.7-1.5,5.7-2.7,8.9-4.1c11.4,6.5,22.3,13.1,33.3,19.6
		c9.9,5.8,19.8,11.6,30.1,17.5c-26.2,47.9-95.7,52.6-128,4.2C164.1,297.1,163.5,295.9,162.8,294.4z"/>
	<path class="st5C-SHARP" d="M421.8,280.5c-3.9,0.8-7.6,1.2-11.9,1.6c0,3.8,0,7.5,0,11.5c-5.1,0-9.7,0-14.9,0c0-3.9,0-7.7,0-11.7
		c-6.2,0-11.8,0-18,0c0,3.7,0,7.4,0,11.5c-5.3,0-10,0-15.1,0c0-3.8,0-7.4,0-11.5c-4.1-0.2-7.8-0.4-11.9-0.6c0-4.8,0-9.4,0-14.6
		c3.7,0,7.5,0,11.5,0c0-6.4,0-12.1,0-18.3c-3.8,0-7.4,0-11.4,0c0-5.1,0-9.8,0-15c3.7,0,7.3,0,11.5,0c0-4.2,0-7.9,0-12
		c5.2,0,9.7,0,14.9,0c0,3.6,0,7.3,0,11.4c6.3,0,12,0,18.3,0c0-3.7,0-7.4,0-11.5c5.1,0,9.7,0,14.9,0c0,3.7,0,7.5,0,11.8
		c4.3,0,8,0,12,0c0,5.2,0,9.8,0,15c-3.8,0-7.5,0-11.5,0c0,6.3,0,12.1,0,18.4c3.9,0,7.7,0,11.8,0C422,271.4,422,275.8,421.8,280.5
		M376.8,260.4c0,1.9,0,3.9,0,5.9c6.4,0,12.1,0,17.8,0c0-6.1,0-11.8,0-17.7c-6.1,0-11.8,0-17.8,0
		C376.8,252.4,376.8,255.9,376.8,260.4z"/>
	<path class="st6C-SHARP" d="M376.8,259.9c0-4,0-7.4,0-11.3c6.1,0,11.8,0,17.8,0c0,5.9,0,11.6,0,17.7c-5.7,0-11.5,0-17.8,0
		C376.8,264.2,376.8,262.3,376.8,259.9z"/>
</svg>
