<?xml version="1.0" encoding="utf-8"?>
<!-- Generator: Adobe Illustrator 26.1.0, SVG Export Plug-In . SVG Version: 6.00 Build 0)  -->
<svg version="1.1" id="Layer_1" xmlns="http://www.w3.org/2000/svg" xmlns:xlink="http://www.w3.org/1999/xlink" x="0px" y="0px"
	 viewBox="0 0 447.5 512" style="enable-background:new 0 0 447.5 512;" xml:space="preserve">
<style type="text/css">
	.st0CSS{fill:#2196F3;}
	.st1CSS{fill:#F9FAFA;}
</style>
<path class="st0CSS" d="M228,513c-2.4,0-4.7,0-7.7-0.3c-8-2.4-15.3-4.6-22.7-6.6c-27.4-7.7-54.9-15.3-82.3-22.9
	c-21.6-6-43.3-12.1-65-18c-5.8-1.6-10.8-2.1-10.7-10.9c0.1-13.7-2.3-27.5-3.6-41.2c-0.8-8.9-1.3-17.7-2.1-26.6
	c-1.2-13.2-2.7-26.5-3.9-39.7c-0.8-9.4-1.3-18.7-2.1-28.1c-1.2-14.2-2.6-28.5-3.9-42.7c-0.7-8.2-1.3-16.4-2.1-24.6
	c-1.3-13.9-2.7-27.8-3.9-41.7c-0.8-8.7-1.3-17.4-2.1-26.1c-1.3-14.1-2.7-28.1-3.9-42.2c-0.8-8.7-1.3-17.4-2.1-26.1
	C8.7,101.5,7.2,87.9,6,74.3c-0.8-9-1.3-18.1-2.1-27.1C2.7,31.8,1.3,16.4,0,1c149,0,298,0,447.5,0.5c-0.2,10.8-0.8,21.2-1.6,31.6
	c-0.6,7.9-1.3,15.7-2,23.6c-1.3,14.1-2.7,28.1-3.9,42.2c-0.8,8.4-1.3,16.7-2.1,25.1c-1.3,13.6-2.7,27.1-3.9,40.7
	c-0.8,9-1.3,18.1-2.1,27.1c-1.2,13.9-2.7,27.8-3.9,41.7c-0.8,8.7-1.3,17.4-2.1,26.1c-1.3,14.2-2.6,28.5-3.9,42.7
	c-0.7,8.2-1.3,16.4-2.1,24.6c-1.3,13.6-2.7,27.1-3.9,40.7c-0.8,9-1.3,18.1-2.1,27.1c-1.2,12.9-2.7,25.8-3.9,38.7
	c-0.8,8.9-1.3,17.7-2.1,26.6c-0.1,1.1-1.4,2.6-2.5,2.9c-4.6,1.6-9.4,2.8-14.1,4.1c-25.6,7.1-51.2,14.1-76.7,21.2
	c-20.1,5.6-40.1,11.2-60.2,16.9C245.6,507.6,236.8,510.3,228,513 M134.4,148.5c56.7,0,113.4,0,170.3,0c-1.3,17.1-2.7,33.9-3.6,50.7
	c-0.3,5-1.7,6.3-6.7,6.4c-65.3,0.6-130.6,1.5-195.9,2.3c-2.1,0-4.2,0-7,0c1.9,18.2,3.7,35.7,5.6,53.6c66.3,0,132.4,0,198.6,0
	c-2.7,24.8-5.4,49.1-7.9,73.4c-0.3,3.1-1.3,4.9-4.8,5.8c-18.7,4.8-37.3,10-55.9,14.9c-2,0.5-4.3,0.5-6.3,0
	c-18.7-4.9-37.3-10.1-55.9-15c-2.9-0.8-4-2.1-4.3-5c-1-12.8-2.5-25.5-3.3-38.3c-0.3-3.8-1.3-5.1-5.3-5c-14.7,0.2-29.3,0.1-44,0.1
	c-2.5,0-4.9,0-8,0c0.4,4.8,0.7,9.1,1.1,13.4c2.2,24.4,4.4,48.8,6.5,73.2c0.3,3.4,1.6,4.7,4.9,5.6c36.1,9.8,72.2,19.9,108.3,29.8
	c2,0.5,4.3,0.6,6.3,0.1c36.4-10,72.8-20.1,109.2-30.1c2.8-0.8,4.1-1.9,4.3-4.9c1.2-14.9,2.6-29.9,4-44.8
	c3.2-35.8,6.4-71.7,9.7-107.5c2.9-31.8,5.7-63.7,8.6-95.5c1.1-11.9,2.1-23.8,3.1-36.1c-94.6,0-188.8,0-283.5,0
	c1.2,17.8,2.4,35.3,3.7,53.1C102.1,148.5,117.8,148.5,134.4,148.5z"/>
<path class="st1CSS" d="M133.9,148.5c-16.1,0-31.8,0-48,0c-1.2-17.7-2.4-35.2-3.7-53.1c94.7,0,188.9,0,283.5,0
	c-1.1,12.2-2,24.2-3.1,36.1c-2.8,31.9-5.7,63.7-8.6,95.5c-3.2,35.8-6.4,71.7-9.7,107.5c-1.3,14.9-2.8,29.9-4,44.8
	c-0.2,3-1.5,4.1-4.3,4.9c-36.4,10-72.8,20.1-109.2,30.1c-1.9,0.5-4.3,0.4-6.3-0.1c-36.1-9.9-72.2-20-108.3-29.8
	c-3.3-0.9-4.6-2.2-4.9-5.6c-2-24.4-4.3-48.8-6.5-73.2c-0.4-4.3-0.7-8.5-1.1-13.4c3.1,0,5.5,0,8,0c14.7,0,29.3,0.1,44-0.1
	c3.9-0.1,5,1.2,5.3,5c0.9,12.8,2.3,25.5,3.3,38.3c0.2,2.9,1.4,4.2,4.3,5c18.7,4.9,37.3,10,55.9,15c2,0.5,4.4,0.5,6.3,0
	c18.7-4.9,37.3-10.1,55.9-14.9c3.4-0.9,4.4-2.6,4.8-5.8c2.6-24.3,5.2-48.7,7.9-73.4c-66.2,0-132.2,0-198.6,0
	c-1.9-17.9-3.7-35.4-5.6-53.6c2.7,0,4.9,0,7,0c65.3-0.8,130.6-1.7,195.9-2.3c4.9,0,6.4-1.4,6.7-6.4c0.9-16.8,2.3-33.6,3.6-50.7
	C247.8,148.5,191.1,148.5,133.9,148.5z"/>
</svg>
