<?xml version="1.0" encoding="utf-8"?>
<!-- Generator: Adobe Illustrator 26.1.0, SVG Export Plug-In . SVG Version: 6.00 Build 0)  -->
<svg version="1.1" id="Layer_1" xmlns="http://www.w3.org/2000/svg" xmlns:xlink="http://www.w3.org/1999/xlink" x="0px" y="0px"
	 viewBox="0 0 448.2 512" style="enable-background:new 0 0 448.2 512;" xml:space="preserve">
<style type="text/css">
	.st0HTML{fill:#FC490B;}
	.st1HTML{fill:#FFFFFF;}
</style>
<path class="st0HTML" d="M10.2,1c142.4,0,284.7,0,427.6,0.3c7.5,3.1,10.8,8.4,10.3,15.7c-0.8,12.6-2,25.2-2.9,37.8
	c-1,13.1-2,26.2-3,39.3c-1.3,17.2-2.7,34.4-4,51.6c-1,12.4-2,24.9-3,37.3c-1.4,17.2-2.7,34.4-4,51.6c-0.8,11.2-1.3,22.4-2,33.6
	c-0.3,4.8-0.6,9.5-1,14.3c-1.3,14.4-2.7,28.7-3.9,43.1c-0.9,10.7-1.4,21.4-2.1,32.1c-0.3,4.6-0.6,9.2-1,13.8
	c-1.3,15.7-2.7,31.4-4,47.1c-0.7,8.7-0.9,17.4-2.2,26c-0.9,5.9-4.5,10.4-10.6,12.3c-13.1,4.1-26.2,8.3-39.3,12.5
	c-27.8,8.8-55.5,17.6-83.3,26.4c-13.4,4.3-26.8,8.5-40.2,12.9c-2.9,1-5.6,2.7-8.5,4.1c-5.4,0-10.7,0-16.6-0.4
	c-1.3-0.8-1.9-1.4-2.6-1.6c-23.9-7.5-47.8-15-71.7-22.5c-31-9.8-62-19.6-92.9-29.6c-3.6-1.2-7.2-2.8-10.4-4.9
	c-7-4.6-5.7-12.6-6.4-19.2c-1.9-17.1-2.8-34.4-4.2-51.6c-1-12.4-2-24.9-3-37.3c-1.4-17.5-2.7-35.1-4-52.6c-1-12.4-2-24.9-3-37.3
	c-1-12.8-2-25.6-3-38.3c-1-12.9-2.1-25.9-3-38.8c-1.1-15.3-2-30.6-3-45.8c-0.3-4.8-0.6-9.5-1-14.3c-1.3-14.4-2.8-28.7-3.9-43.1
	C3.4,64.6,3,53.7,2.1,42.9c-0.4-5.5-1.6-11-1.9-16.6C-0.3,16.5-1.1,6.3,10.2,1 M354.2,254.4c0.7-7.2,1.4-14.4,1.9-21.6
	c0.5-7.2,0.7-14.4,1.1-22c-68.7,0-136.8,0-204.9,0c-2.2-20.8-4.4-41-6.7-61.9c72.9,0,144.6,0,216.7,0c1.4-18.2,2.8-35.9,4.1-53.7
	c-95.3,0-189.5,0-284.3,0c0.4,7.5,0.7,14.7,1.1,21.9c0.2,4.1,0.6,8.2,0.9,12.3c1.3,16.2,2.7,32.4,4,48.6c0.4,5.1,0.6,10.2,1,15.3
	c1.3,16.4,2.6,32.8,4,49.1c0.7,7.8,1.5,15.6,2.3,23.8c67.4,0,134.5,0,201.5,0c-1.7,23.7-3.4,47-5.1,70.4
	c-18.9,5.1-37.8,10.4-56.7,15.3c-4.3,1.1-9.1,2.1-13.3,1.2c-12.2-2.6-24.2-6.1-36.2-9.3c-8.9-2.4-17.7-4.8-26.7-7.3
	c0-14.6,0-28.9,0-43.2c-20.8,0-41.2,0-61.6,0c2.3,29.6,4.6,58.9,7,88.2c9.9,3.2,19.8,6.3,29.6,9.4c26.7,8.5,53.4,17,80.1,25.4
	c5.2,1.6,10,3.5,16.1,1.5c20.5-7,41.3-13.3,62-19.8c17.4-5.5,34.8-11,51.7-16.4c0.5-3.6,1.2-6.6,1.4-9.7c1.1-12.8,2-25.6,3-38.4
	c1-13,2-25.9,3-38.9C352.2,281.6,353.2,268.4,354.2,254.4z"/>
<path class="st1HTML" d="M354.2,254.9c-1,13.6-2,26.7-3,39.8c-1,13-2,25.9-3,38.9c-1,12.8-2,25.6-3,38.4c-0.3,3.1-0.9,6.2-1.4,9.7
	c-16.9,5.4-34.3,10.9-51.7,16.4c-20.7,6.5-41.5,12.8-62,19.8c-6,2.1-10.9,0.1-16.1-1.5c-26.7-8.4-53.4-16.9-80.1-25.4
	c-9.8-3.1-19.7-6.3-29.6-9.4c-2.3-29.4-4.6-58.7-7-88.2c20.4,0,40.9,0,61.6,0c0,14.3,0,28.6,0,43.2c9.1,2.5,17.9,5,26.7,7.3
	c12,3.2,24,6.7,36.2,9.3c4.2,0.9,9-0.1,13.3-1.2c18.9-4.9,37.8-10.1,56.7-15.3c1.7-23.4,3.4-46.7,5.1-70.4c-67,0-134,0-201.5,0
	c-0.8-8.2-1.6-16-2.3-23.8c-1.4-16.4-2.7-32.8-4-49.1c-0.4-5.1-0.6-10.2-1-15.3c-1.3-16.2-2.6-32.4-4-48.6
	c-0.3-4.1-0.7-8.2-0.9-12.3c-0.4-7.2-0.7-14.4-1.1-21.9c94.7,0,189,0,284.3,0c-1.4,17.7-2.7,35.5-4.1,53.7c-72.1,0-143.8,0-216.7,0
	c2.3,20.9,4.5,41.2,6.7,61.9c68.1,0,136.2,0,204.9,0c-0.4,7.7-0.6,14.8-1.1,22C355.6,240,354.8,247.2,354.2,254.9z"/>
</svg>
