<?xml version="1.0" encoding="utf-8"?>
<!-- Generator: Adobe Illustrator 26.1.0, SVG Export Plug-In . SVG Version: 6.00 Build 0)  -->
<svg version="1.1" id="Capa_1" xmlns="http://www.w3.org/2000/svg" xmlns:xlink="http://www.w3.org/1999/xlink" x="0px" y="0px"
	 viewBox="0 0 448 384" style="enable-background:new 0 0 448 384;" xml:space="preserve">
	<g transform="translate(0.000000,512.000000) scale(0.100000,-0.100000)">
		<path d="M135.1,5101c-22-10-54-34-72-52c-68-72-63,39-63-1529s-5-1457,63-1529c18-18,50-42,72-52c38-18,81-19,818-19
			c427,0,777-3,777-7c0-5-27-111-58-238l-58-230l-193-5c-176-5-194-7-207-24c-21-29-18-92,6-116c20-20,33-20,1020-20s1000,0,1020,20
			c24,24,27,87,6,116c-13,17-31,19-207,24l-193,5l-58,230c-31,127-58,233-58,238c0,4,350,7,778,7c736,0,779,1,817,19
			c22,10,54,34,72,52c68,72,63-40,63,1531c0,1365-1,1425-19,1463c-10,22-34,54-52,72c-72,68,107,63-2171,63
			C250.1,5120,174.1,5119,135.1,5101z M4260.1,4949c63-22,60,42,60-1274V2480h-2080h-2080v1194c0,864,3,1202,11,1226
			c23,63-117,59,2065,60C3697.1,4960,4236.1,4957,4260.1,4949z M4320.1,2245c0-95-17-138-60-154c-47-16-3993-16-4040,0
			c-43,16-60,59-60,154v75h2080h2080V2245z M2632.1,1685c31-126,58-233,58-237c0-5-202-8-450-8c-247,0-450,2-450,5
			c0,7,109,446,115,463c4,10,76,12,337,10l332-3L2632.1,1685z"/>
		<path d="M1460.1,4540c-20-20-20-33-20-860s0-840,20-860s33-20,780-20s760,0,780,20c26,26,27,90,3,118c-10,11-199,180-420,376
			c-222,197-403,361-403,366s181,169,403,366c221,196,410,365,420,376c24,28,23,92-3,118c-20,20-33,20-780,20
			S1480.1,4560,1460.1,4540z M2010.1,4396c0-2-80-75-177-162c-98-86-190-169-205-183l-28-25v187v187h205
			C1918.1,4400,2010.1,4398,2010.1,4396z M2730.1,4396c0-3-242-219-537-482c-296-262-550-488-565-502l-28-26v205v205l338,301l337,302
			h228C2628.1,4400,2730.1,4398,2730.1,4396z M2370.1,3289c168-149,318-284,335-300l30-29h-568h-567v98v98l228,202
			c125,111,229,202,232,202S2202.1,3438,2370.1,3289z"/>
	</g>
</svg>
