<?xml version="1.0" standalone="no"?>
<!DOCTYPE svg PUBLIC "-//W3C//DTD SVG 20010904//EN"
 "http://www.w3.org/TR/2001/REC-SVG-20010904/DTD/svg10.dtd">
<svg version="1.0" xmlns="http://www.w3.org/2000/svg"
 width="512.000000pt" height="512.000000pt" viewBox="0 0 512.000000 512.000000"
 preserveAspectRatio="xMidYMid meet">
<metadata>
Created by potrace 1.16, written by Peter Selinger 2001-2019
</metadata>
<g transform="translate(0.000000,512.000000) scale(0.100000,-0.100000)"
fill="#000000" stroke="none">
<path d="M455 4461 c-22 -10 -54 -34 -72 -52 -68 -72 -63 39 -63 -1529 0
-1568 -5 -1457 63 -1529 18 -18 50 -42 72 -52 38 -18 81 -19 818 -19 427 0
777 -3 777 -7 0 -5 -27 -111 -58 -238 l-58 -230 -193 -5 c-176 -5 -194 -7
-207 -24 -21 -29 -18 -92 6 -116 20 -20 33 -20 1020 -20 987 0 1000 0 1020 20
24 24 27 87 6 116 -13 17 -31 19 -207 24 l-193 5 -58 230 c-31 127 -58 233
-58 238 0 4 350 7 778 7 736 0 779 1 817 19 22 10 54 34 72 52 68 72 63 -40
63 1531 0 1365 -1 1425 -19 1463 -10 22 -34 54 -52 72 -72 68 107 63 -2171 63
-1988 0 -2064 -1 -2103 -19z m4125 -152 c63 -22 60 42 60 -1274 l0 -1195
-2080 0 -2080 0 0 1194 c0 864 3 1202 11 1226 23 63 -117 59 2065 60 1461 0
2000 -3 2024 -11z m60 -2704 c0 -95 -17 -138 -60 -154 -47 -16 -3993 -16
-4040 0 -43 16 -60 59 -60 154 l0 75 2080 0 2080 0 0 -75z m-1688 -560 c31
-126 58 -233 58 -237 0 -5 -202 -8 -450 -8 -247 0 -450 2 -450 5 0 7 109 446
115 463 4 10 76 12 337 10 l332 -3 58 -230z"/>
<path d="M1780 3900 c-20 -20 -20 -33 -20 -860 0 -827 0 -840 20 -860 20 -20
33 -20 780 -20 747 0 760 0 780 20 26 26 27 90 3 118 -10 11 -199 180 -420
376 -222 197 -403 361 -403 366 0 5 181 169 403 366 221 196 410 365 420 376
24 28 23 92 -3 118 -20 20 -33 20 -780 20 -747 0 -760 0 -780 -20z m550 -144
c0 -2 -80 -75 -177 -162 -98 -86 -190 -169 -205 -183 l-28 -25 0 187 0 187
205 0 c113 0 205 -2 205 -4z m720 0 c0 -3 -242 -219 -537 -482 -296 -262 -550
-488 -565 -502 l-28 -26 0 205 0 205 338 301 337 302 228 0 c125 1 227 -1 227
-3z m-360 -1107 c168 -149 318 -284 335 -300 l30 -29 -568 0 -567 0 0 98 0 98
228 202 c125 111 229 202 232 202 3 0 142 -122 310 -271z"/>
</g>
</svg>
