<?xml version="1.0" encoding="utf-8"?>
<!-- Generator: Adobe Illustrator 26.3.1, SVG Export Plug-In . SVG Version: 6.00 Build 0)  -->
<svg version="1.1" id="Layer_1" xmlns="http://www.w3.org/2000/svg" xmlns:xlink="http://www.w3.org/1999/xlink" x="0px" y="0px"
	 viewBox="0 0 612 512" style="enable-background:new 0 0 612 512;" xml:space="preserve">
<style type="text/css">
	.st0{fill:#00758F;}
</style>
<path class="st0" d="M51,24.5c0.7-1.1,1.7-1.6,2-2.4C58.8,8.6,72.9,3.9,86.2,5.4c12.3,1.5,23.7,5.6,34.5,11.1
	c8.9,4.5,17.6,9.9,25.2,16.2c6.8,5.7,14.3,7.1,22.3,7.1c19.2,0,37.5,4.7,54.2,13.3c16.8,8.8,32.8,19.6,48,31
	c15,11.4,29.1,24.1,42.4,37.3c18.3,18.1,33.8,38.8,46.4,61.4c8.5,15.2,14.6,31.6,22,47.4c8.7,18.7,17.6,37.3,26.5,55.8
	c3.6,7.4,7.3,14.8,11,22.1c2.2,4.3,6,6.7,10.5,8.4c24.5,9.4,47.8,21.2,68.5,37.6c11,8.7,22.1,17.3,32.4,26.7
	c5.7,5.1,10.1,11.7,14.9,17.8c0.9,1.1,0.7,3,1,4.5c-13.5,5.2-27.1,7.1-40.8,8.9c-9.1,1.2-17.9,4-26.9,6.1c-2.1,0.5-4.1,0.8-6.7,1.3
	c1.8,6.3,6.6,10.1,11.4,13.3c9.2,6.3,19,11.8,28.3,17.9c13.7,9.1,25.1,20.9,35.4,33.6c1.7,2.1,4.2,3.7,5.9,5.8
	c3.3,4.2,6.4,8.7,9.9,12.8c0.3,1.5,0.3,3.3,0.3,5.4c-6.9-4.9-14-10-20.7-15.5c-13.3-10.9-28.8-17.8-44.2-25
	c-14.4-6.8-27.7-15.7-38.8-26.8c-7.7-7.7-13-18-18.7-27.5c-1.9-3.1,1.2-6.1,4.4-7c10.8-3.4,21.5-7.5,32.6-9.4
	c14.3-2.4,28.8-3,44.5-4.5c-3.3-3-6.2-6.2-9.7-8.6c-13.4-9.2-27.2-17.8-40.4-27.3c-12.3-8.9-26.6-12.7-40.4-17.8
	c-4.9-1.8-9.9-3.5-15-4.8c-10.2-2.7-15.9-10.3-20.2-18.9c-8-15.9-15.7-31.9-23-48.1c-8.4-18.4-15.3-37.5-24.6-55.5
	c-8.8-17.1-18.9-33.6-30-49.2c-9.4-13.3-20.4-25.6-32-37.1c-18.6-18.5-39.3-34.7-62.8-46.8c-11.7-6-23.8-11.1-36-15.9
	c-4.6-1.8-9.9-2-15-2.5c-9-0.9-18.2-1-27.1-2.3c-3.3-0.5-6.9-2.7-9.3-5.2c-10.4-10.3-23.4-15.9-36.4-21.4
	c-6.2-2.6-12.6-4.7-19.1-6.2c-8-1.8-14.9,3.5-12.7,12.8c2.2,9,7.8,16.2,13.5,23.2c16.2,19.7,29.2,41,35.8,66.2
	c4.7,17.8,10.8,35.3,21.6,50.6c2.1,3,4.1,6.2,6.9,8.4c9.5,7.6,10.1,16.7,6.4,27.4c-3.9,11.2-7.7,22.4-10.3,33.9
	c-3.2,13.9-3.8,28-2.2,42.3c1.4,12.7,3.5,25.1,8.3,36.9c3,7.5,5.9,15.2,12.6,20.4c1.9,1.5,4.2,2.3,6.2,3.4
	c2.5-15.1,4.7-29.2,7.2-43.3c2.4-13.1,11-22.7,19.2-32.3c2.3-2.6,3.6,0.7,4.4,2.5c2.5,6.1,4.4,12.5,7.3,18.3
	c10,19.8,19.7,39.9,30.7,59.1c7.5,13.1,16.8,25.2,26,37.1c4.5,5.8,10.6,10.3,15.9,15.4c1.3,1.3,2.5,2.8,3.8,4.2
	c-0.4,0.5-0.7,0.9-1.1,1.4c-4-2.7-8.4-5-11.9-8.2c-13.3-12-26.3-24.3-39.5-36.3c-13.1-11.9-21.4-27.1-28.7-42.9
	c-1.1-2.4-2.3-4.7-3.5-7.1c-0.1-0.2-0.5-0.3-1.4-0.8c-1.8,10.8-3.6,21.4-5.2,31.9c-1.3,8.6-4.2,16.3-13,19.3c-9.5,3.3-18.4,1-25.6-6
	c-13-12.7-19.8-28.9-24.3-46.2c-4.6-17.5-5.3-35.5-3.7-53.3c1.2-13.5,5-26.7,8.1-40c1.4-6.2,4.1-12.1,5.6-18.2
	c0.4-1.6-0.8-4.2-2.1-5.5c-14.7-15.1-22.3-34.1-29.2-53.3c-4.3-11.7-8-23.6-11.8-35.5c-3.2-10.2-10.1-18.1-16.2-26.3
	C68.4,72,58,60.2,51.4,45.9C51,39,51,32,51,24.5z"/>
<path class="st0" d="M167.2,91.2c4.4,4,9.9,6,12.1,12.2c3.1,8.4,1.4,16.9-5.9,22c-6.7-10.5-13.3-21.1-20.6-32.5
	C157.7,92.3,162.3,91.7,167.2,91.2z"/>
</svg>
