<?xml version="1.0" encoding="utf-8"?>
<!-- Generator: Adobe Illustrator 26.3.1, SVG Export Plug-In . SVG Version: 6.00 Build 0)  -->
<svg version="1.1" id="Layer_1" xmlns="http://www.w3.org/2000/svg" xmlns:xlink="http://www.w3.org/1999/xlink" x="0px" y="0px"
	 viewBox="0 0 612 512" style="enable-background:new 0 0 612 512;" xml:space="preserve">
<style type="text/css">
	.st0{fill:#494D8A;}
	.st1{fill:#8E92BD;}
	.st2{fill:#9498C2;}
	.st3{fill:#9B9FC7;}
	.st4{fill:#888DB9;}
	.st5{fill:#8185B4;}
	.st6{fill:#787CAD;}
	.st7{fill:#7074A7;}
	.st8{fill:#585C95;}
	.st9{fill:#61659C;}
	.st10{fill:#686CA1;}
	.st11{fill:#4F538E;}
	.st12{fill:#777BB3;}
	.st13{fill:#ADB1D5;}
	.st14{fill:#868AB7;}
	.st15{fill:#9498C1;}
	.st16{fill:#A1A5CC;}
	.st17{fill:#A3A7CD;}
	.st18{fill:#6B6FA3;}
	.st19{fill:#7377AA;}
	.st20{fill:#F7F7F8;}
	.st21{fill:#030303;}
	.st22{fill:#F8F8F9;}
	.st23{fill:#797DB4;}
</style>
<path class="st0" d="M512,175.9c23,16,41.8,35.2,49.2,63.3c0.1,0.4,0.7,0.7,1.4,0.9c0.4,10.9,0.4,22,0.4,33.4c-0.7,1.3-1.7,2-2,3
	c-4,13.7-11,25.6-20.3,36.3c-18.5,21.2-41.6,35.6-67,46.8c-10.7,4.7-21.7,8.6-32.5,12.8c-1,0.4-2.2,0.5-3.7,0.3
	c1.9-4.1,4.2-7.9,6.9-11.9c16.5-7.6,33.1-14.1,48.7-22.6c21.7-11.7,40.1-27.4,51.9-49.6c11.1-21.1,10.9-42.3-0.1-63.5
	c-8.1-15.6-20.5-27.2-33.8-38.6C511.3,182.7,511.7,179.3,512,175.9z"/>
<path class="st1" d="M74.9,314c-10.8-10.7-17.8-23.6-21.9-38.1c-0.2-0.9-0.8-1.6-1.6-2.2c-0.3-0.5-0.3-1.2,0-2.4
	c1.6,0.3,3.2,0.8,4,1.8c3,3.5,5.7,7.3,8.7,10.8c0.6,0.7,1.9,0.7,3.2,1.2C79,308.9,98,325,119.9,338c2.9,1.7,5.4,4,7.8,5.9
	c-15.4-4.8-28.3-13.4-40.9-22.5C83.1,318.7,78.9,316.5,74.9,314z"/>
<path class="st2" d="M67,285c-1-0.3-2.3-0.3-2.9-1c-3-3.5-5.7-7.3-8.7-10.8c-0.9-1-2.4-1.5-4-2.2c-0.4-8.3-0.4-16.7,0-25.5
	c1.9,1.8,3.4,4.2,5.1,6.3c1.3,1.6,3,2.8,4.5,4.6C60.9,266.7,63,276.1,67,285z"/>
<path class="st3" d="M61,256c-1.5-1.4-3.2-2.6-4.5-4.1c-1.8-2.1-3.2-4.5-5.1-6.8c-0.3-1.4-0.3-2.8-0.3-4.6c0.6-0.6,1.6-0.6,1.7-0.9
	c1.6-4.7,3.1-9.5,4.9-14c2.4,3.3,4.4,6.5,6.4,10C63,242.6,62,249.3,61,256z"/>
<path class="st4" d="M74.9,314.4c3.9,2.1,8.1,4.3,11.9,7c12.6,9.2,25.5,17.7,41.2,22.5c2.2,0.4,3.7,0.6,5,1.1
	c8.4,3.6,16.5,7.9,25,10.8c14.8,5.1,29.9,9.4,44.8,14.5c-5.1,0.6-10,1-15,1c-5.6,0-11.3-0.2-16.9-0.3c-8.8-3.1-17.7-5.7-26.2-9.3
	c-17.3-7.3-33.9-16.3-48.7-27.9C88.6,328,82,321.2,74.9,314.4z"/>
<path class="st5" d="M171.1,371.4c5.5-0.2,11.1,0,16.7,0c5,0,9.9-0.4,15.4-1c3.4,0.3,6.3,1.1,9.2,1.6c13.5,2.4,27,4.7,40.4,7.4
	c-2.3,1.5-4.5,2.7-6.8,3.6c-3.7,1.4-7.4,2.6-11.2,3.9c-17.8-3.9-35.7-7.8-53.5-11.9C178.1,374.2,174.7,372.8,171.1,371.4z"/>
<path class="st6" d="M235.4,386.9c3.3-1.4,7.1-2.5,10.7-3.9c2.3-0.9,4.5-2.1,7.2-3.6c15.5,0.3,30.4,1,45.4,1.7
	c0.7,0,1.5,0.6,1.9,1.2c-4.6,1.9-9.1,3.2-13.2,5.2c-1.8,0.8-3,2.9-4.5,4.4c-1.3-0.3-2.5-0.7-3.8-0.8c-13.8-1.4-27.6-2.7-41.4-4
	C237.2,387,236.5,387,235.4,386.9z"/>
<path class="st7" d="M283.5,391.9c1-1.6,2.3-3.6,4.1-4.5c4.2-1.9,8.7-3.3,13.7-5.2c10.4-0.6,20.1-0.9,29.7-0.9
	c-2.4,2-4.8,3.6-7.1,5.3c-2.3,1.7-4.6,3.5-6.8,5.2C306,391.9,294.9,391.9,283.5,391.9z"/>
<path class="st8" d="M410,380.8c-10.4,2-20.8,4.1-31.5,5.7c1-2,2.4-3.6,3.8-5.2c1.9-2.1,3.8-4.3,6.1-6.5c10.5-2.3,20.5-4.6,30.6-6.6
	c-1.4,2-2.9,3.6-4.1,5.3C413.2,376,411.6,378.4,410,380.8z"/>
<path class="st9" d="M388,375c-1.9,2.1-3.8,4.3-5.7,6.4c-1.4,1.6-2.8,3.2-4.2,5.1c-9.7,1.4-19.4,2.4-29.5,3.1
	c1.7-2.2,3.8-3.9,5.9-5.8c1.6-1.5,3.1-3.2,5.1-4.8C369.2,377.7,378.6,376.3,388,375z"/>
<path class="st10" d="M359,379c-1.5,1.6-3,3.3-4.6,4.8c-2,1.9-4.2,3.6-6.3,5.7c-1.1,0.7-2.1,1.4-3.2,1.4c-9,0.4-18,0.7-27.4,1
	c1.8-1.8,4.1-3.6,6.4-5.3c2.3-1.7,4.7-3.3,7.6-5.3C340.9,380.3,350,379.7,359,379z"/>
<path class="st11" d="M410.4,380.9c1.2-2.4,2.8-4.9,4.5-7.2c1.3-1.7,2.7-3.3,4.5-5.3c8.5-2.7,16.6-5.1,24.6-7.4
	c-2.3,3.8-4.6,7.6-6.9,11.8C428.3,375.7,419.5,378.3,410.4,380.9z"/>
<path class="st12" d="M444.3,360.8c-8.4,2.5-16.5,4.8-24.9,7.2c-10.5,2.3-20.5,4.6-31,6.9c-9.8,1.4-19.2,2.7-29,4.1
	c-9.5,0.7-18.5,1.3-28,2c-10.1,0.3-19.8,0.7-30,1c-1.2-0.3-1.9-0.9-2.7-0.9c-15-0.7-29.9-1.4-45.4-2.1c-13.9-2.3-27.5-4.6-40.9-7
	c-2.9-0.5-5.8-1.3-9.1-2c-15.4-4.7-30.5-9-45.3-14.1c-8.6-3-16.7-7.2-25-10.8c-1.3-0.6-2.8-0.7-4.7-1.1c-3.1-2-5.6-4.3-8.5-6
	C98,325,79,308.9,67.3,285.2c-4.2-9.2-6.3-18.5-6.3-28.8c1-7.2,2-13.9,3.4-21.2c3.7-7.2,7.2-13.7,10.9-20.4
	c7.2-7.6,13.4-15.8,21.2-22.2c27.7-22.9,60.3-36.2,94.5-45.5c22.6-6.1,45.5-10.6,68.9-12.2c15.6-1.1,31.1-2.2,46.7-2.8
	c9.8-0.3,19.6,0.5,29.8,0.8c8.8,0.7,17.2,1.4,25.9,2.3c8.8,1.4,17.2,2.5,26.1,3.8c7.6,1.7,14.9,3.3,22.1,4.7
	c4.2,0.8,5.4-0.8,4.9-5.3c-0.1-1.1,0.5-2.4,0.7-3.6c4,1,8.1,2,12.5,3.6c0.4,9.4,0.9,10.1,9.3,12.9c2.7,0.9,5.4,1.7,8.4,2.7
	c5.8,2.1,11.2,4,16.9,6.1c5.7,2.8,11.3,5.2,17,8c6.1,3.4,11.9,6.6,18,10c4.4,3.1,8.6,5.9,12.8,8.7c13.3,10.9,25.7,22.6,33.8,38.2
	c11,21.2,11.2,42.4,0.1,63.5c-11.7,22.3-30.2,37.9-51.9,49.6C477.4,346.7,460.8,353.3,444.3,360.8 M157.2,192
	c-3.9,0.7-4.6,3.7-5.3,7c-8.5,43.6-17,87.2-25.5,130.8c-1.1,5.5,1.1,8.2,6.8,8.2c8.7,0.1,17.3-0.1,26,0.1c4.7,0.1,7-2,7.8-6.5
	c1.5-8.5,3.4-17,4.9-25.5c0.5-3.1,1.8-4.1,4.9-4c8,0.2,16,0.1,24-0.1c19.8-0.5,36.7-7.5,49.5-23c1.3-1.6,2.7-3.2,4.1-5
	c0.4,0.7,0.7,1,0.6,1.2c-1.1,6.2-2.2,12.4-3.4,18.7c-1,5.7,0.9,8.2,6.7,8.2c8.5,0.1,17-0.2,25.5,0.1c5.3,0.2,7.3-2.3,8.2-7.2
	c4.1-22.1,8.6-44.1,12.8-66.1c0.6-3.2,2-4.1,5-3.9c4.8,0.2,9.7,0,14.5,0.1c11.3,0,12.4,1.5,10.2,12.6c-3.6,18.4-7.1,36.9-10.7,55.4
	c-1.3,7,0.4,9.1,7.5,9.1c9.8,0,19.6,0,29.9,0c-1.8,9.3-3.6,18.1-5.2,26.9c-1.2,6.7,0.7,9,7.4,9c7.8,0,15.7,0,23.5,0
	c7.4,0,8.5-0.9,9.9-8.2c1.7-9.1,3.5-18.2,5.4-27.8c9.1,0,18,0.7,26.7-0.2c9.5-1,19.6-1.9,28.1-5.8c26.2-12.2,38.1-34.1,38-62.7
	c-0.1-18-10.6-32.6-27.8-37.9c-6.3-1.9-13-3.1-19.6-3.3c-19.3-0.4-38.7-0.1-58-0.3c-5.3-0.1-7.6,2.3-8.4,7.1
	c-1,6.1-2.3,12.2-3.4,18.3c-2.8-10.9-9.2-18.5-19.8-21.5c-7.1-2-14.6-3.1-22-3.7c-7.8-0.6-15.6-0.1-23.9-0.1
	c1.8-9.5,3.6-18.4,5.3-27.4c1.1-5.9-0.9-8.6-6.8-8.6c-8.3-0.1-16.7,0-25,0c-6.2,0-7.4,1.1-8.6,7.3c-3.4,17.8-6.9,35.6-10.3,53.4
	c-0.4,2.3-1.1,4.5-1.5,6.4c-2.8-5-5-10.3-8.5-14.7c-9.4-11.9-22.8-15.9-37.2-16.2C199,191.7,178.5,192,157.2,192z"/>
<path class="st13" d="M336,133c-9.8-0.3-19.6-1.1-29.4-0.8c-15.6,0.5-31.1,1.7-46.7,2.8c-23.4,1.6-46.4,6-68.9,12.2
	c-34.3,9.3-66.9,22.6-94.5,45.5c-7.7,6.4-14,14.6-21.5,22.2c-2.4-2.5-4.2-5.1-6-7.8c7.2-11,17.1-19.2,27.5-27.1
	c23-17.5,48.8-29.1,76.1-38c19.3-6.3,38.9-11.2,59-13.8c15.9-2.1,31.8-3.9,47.8-4.9c16.2-1,32.5-0.8,48.7-1.1c2.1,0,4.1,0.6,6.6,1.5
	C335.3,127,335.7,130,336,133z"/>
<path class="st14" d="M415.9,134.6c-0.1,1.5-0.7,2.8-0.5,3.9c0.5,4.5-0.7,6.1-4.9,5.3c-7.3-1.4-14.5-3-22.1-5.2
	c-0.7-3.7-1-6.8-1.3-9.8C396.6,130.7,406.1,132.5,415.9,134.6z"/>
<path class="st15" d="M386.8,128.5c0.5,3.4,0.9,6.5,1.2,10c-8.5-0.7-16.9-1.8-25.8-3.6c-1-3.7-1.6-6.7-2.3-9.8
	c6.9,0.7,13.9,1.5,20.8,2.2C382.7,127.6,384.7,127.9,386.8,128.5z"/>
<path class="st16" d="M359.6,125.1c1.1,3.1,1.7,6.1,2.4,9.6c-8.3-0.3-16.7-1-25.5-1.6c-0.8-3-1.1-6-1.4-9.4
	C343,123.8,351.1,124.4,359.6,125.1z"/>
<path class="st17" d="M68.6,207.1c2.1,2.5,3.9,5.2,6.1,7.9c-3.1,6.6-6.6,13.1-10.3,19.9c-2.3-2.9-4.3-6.1-6.3-9.6
	C61.4,219,64.8,213.1,68.6,207.1z"/>
<path class="st9" d="M480,168c-5.5-2.5-11.1-5-16.8-8.2c-0.2-3.8-0.2-6.9-0.2-9.9c5.9,2.5,11.8,4.9,17.8,8.2
	C480.7,161.9,480.3,164.9,480,168z"/>
<path class="st8" d="M480.2,168.3c0.1-3.3,0.5-6.4,0.8-9.9c5.9,2.7,11.8,5.8,17.6,9.6c-0.3,3.8-0.5,6.9-0.6,10.1
	C492.1,174.9,486.3,171.7,480.2,168.3z"/>
<path class="st18" d="M462.8,149.6c0.2,3.4,0.2,6.4,0.2,10c-5.4-1.5-10.9-3.4-16.7-5.8c-0.3-3.9-0.4-7.2-0.4-10.5
	C451.5,145.2,457.1,147.3,462.8,149.6z"/>
<path class="st19" d="M445.6,143.1c0.4,3.4,0.4,6.7,0.4,10.5c-2.7-0.4-5.4-1.2-8.1-2.1c-8.4-2.8-8.9-3.5-8.9-12.9
	C434.4,139.8,439.8,141.4,445.6,143.1z"/>
<path class="st11" d="M498.2,178.3c0-3.4,0.1-6.6,0.6-10c4.5,2.2,8.7,4.6,13.1,7.4c-0.2,3.7-0.5,7.1-0.9,11
	C506.8,184.2,502.6,181.4,498.2,178.3z"/>
<path class="st20" d="M157.6,192c20.9,0,41.4-0.3,61.9,0.1c14.4,0.3,27.8,4.3,37.2,16.2c3.4,4.4,5.6,9.7,8.5,14.7
	c0.4-1.8,1.1-4.1,1.5-6.4c3.5-17.8,6.9-35.6,10.3-53.4c1.2-6.2,2.4-7.3,8.6-7.3c8.3,0,16.7-0.1,25,0c5.9,0,8,2.7,6.8,8.6
	c-1.7,8.9-3.4,17.9-5.3,27.4c8.3,0,16.1-0.5,23.9,0.1c7.4,0.6,14.9,1.6,22,3.7c10.6,3,17,10.6,19.8,21.5c1.2-6.1,2.4-12.2,3.4-18.3
	c0.8-4.8,3.1-7.2,8.4-7.1c19.3,0.2,38.7-0.2,58,0.3c6.6,0.1,13.3,1.4,19.6,3.3c17.2,5.3,27.7,19.9,27.8,37.9
	c0.1,28.6-11.7,50.5-38,62.7c-8.5,3.9-18.6,4.8-28.1,5.8c-8.7,0.9-17.6,0.2-26.7,0.2c-1.8,9.6-3.6,18.7-5.4,27.8
	c-1.4,7.3-2.5,8.2-9.9,8.2c-7.8,0-15.7,0-23.5,0c-6.7,0-8.7-2.3-7.4-9c1.6-8.8,3.4-17.6,5.2-26.9c-10.3,0-20.1,0-29.9,0
	c-7.1,0-8.9-2.1-7.5-9.1c3.5-18.5,7.1-36.9,10.7-55.4c2.2-11.1,1-12.6-10.2-12.6c-4.8,0-9.7,0.1-14.5-0.1c-3-0.1-4.4,0.7-5,3.9
	c-4.1,22.1-8.6,44.1-12.8,66.1c-0.9,4.9-3,7.3-8.2,7.2c-8.5-0.3-17,0-25.5-0.1c-5.8-0.1-7.7-2.6-6.7-8.2c1.1-6.2,2.3-12.4,3.4-18.7
	c0-0.2-0.3-0.5-0.6-1.2c-1.5,1.8-2.8,3.4-4.1,5c-12.8,15.6-29.7,22.6-49.5,23c-8,0.2-16,0.2-24,0.1c-3.1-0.1-4.4,0.9-4.9,4
	c-1.4,8.5-3.3,17-4.9,25.5c-0.8,4.5-3,6.6-7.8,6.5c-8.7-0.2-17.3,0-26-0.1c-5.7,0-7.9-2.8-6.8-8.2c8.5-43.6,17-87.2,25.5-130.8
	C152.5,195.7,153.3,192.7,157.6,192 M254.8,261.1c1.6-6.3,3.9-12.4,4.7-18.8c1.7-13.1-0.5-25.3-11.1-34.6
	c-7.2-6.3-15.9-9.4-25.2-9.6c-20.1-0.6-40.3-0.3-60.5-0.7c-4.1-0.1-5.2,1.4-5.9,5.1c-5.4,28.4-11,56.8-16.5,85.2
	c-2.9,14.7-5.6,29.3-8.5,44.3c9.9,0,19.5,0,29.3,0c2.4-11.9,4.7-23.6,7.1-36c11.9,0,23.5,0.4,35.2-0.1
	C227.2,295,244,283,254.8,261.1 M392.6,197.5c-1.8,0.1-3.5,0.2-5.3,0.3c-8.7,45-17.4,89.6-26.1,134.3c10,0,19.6,0,29.3,0
	c2.3-11.9,4.6-23.6,7.1-35.9c11.6,0,22.9,0.5,34.2-0.1c30.7-1.5,51.9-20.5,56.8-51c2.1-13.4,1-26.4-9.8-36.5
	c-7.4-6.9-16.5-10.2-26.3-10.5C432.9,197.5,413.2,197.6,392.6,197.5 M335.8,261.3c-2.3,11.6-4.6,23.3-6.9,35.3
	c9.5,0,18.1,0.1,26.8-0.1c1.2,0,3-1.8,3.3-3c4.1-20,8.2-40.1,11.8-60.2c3.9-21.1-3.1-31.5-24.5-34.4c-11.6-1.6-23.6-0.9-35.4-1.3
	c-1.7-0.1-3.5-0.1-5.5-0.2c2.3-12.1,4.5-23.6,6.7-35.3c-10,0-19.4,0-29.1,0c-8.7,44.8-17.4,89.5-26.1,134.4c10,0,19.4,0,29.1,0
	c5-25.8,10-51.4,15.1-77.2c1.6,0,2.9,0,4.3,0c7.5,0.1,15-0.2,22.5,0.2c11.8,0.7,14.9,4.9,12.8,16.6
	C339.1,244.1,337.5,252.2,335.8,261.3z"/>
<path class="st21" d="M254.6,261.4C244,283,227.2,295,203.4,296c-11.6,0.5-23.3,0.1-35.2,0.1c-2.4,12.4-4.7,24.1-7.1,36
	c-9.8,0-19.3,0-29.3,0c2.9-15,5.7-29.7,8.5-44.3c5.5-28.4,11.2-56.8,16.5-85.2c0.7-3.8,1.8-5.2,5.9-5.1c20.2,0.4,40.3,0.2,60.5,0.7
	c9.3,0.3,18,3.3,25.2,9.6c10.6,9.3,12.8,21.5,11.1,34.6C258.6,248.7,256.4,254.9,254.6,261.4 M229,241.2
	c0.8-14.9-3.3-20.7-17.3-21.9c-9.4-0.8-18.9-0.2-28.7-0.2c-3.6,18.5-7.2,37-10.8,55.8c8.3,0,16.3,0.3,24.2-0.1
	c17.6-0.8,27.5-9.2,31.4-26.4C228.3,246.4,228.6,244.3,229,241.2z"/>
<path class="st21" d="M393.1,197.5c20.1,0.2,39.8,0.1,59.4,0.6c9.8,0.3,19,3.6,26.3,10.5c10.7,10.1,11.9,23.1,9.8,36.5
	c-4.9,30.4-26.1,49.5-56.8,51c-11.3,0.6-22.6,0.1-34.2,0.1c-2.4,12.4-4.7,24-7.1,35.9c-9.7,0-19.3,0-29.3,0
	c8.7-44.8,17.3-89.3,26.1-134.3C389.1,197.6,390.9,197.5,393.1,197.5 M445.4,269c11.1-9.3,13.6-22,13.1-35.5
	c-0.3-7.2-4.8-12.1-11.7-13c-11.3-1.4-22.7-1.6-34.1-2.3c-3.8,19.7-7.4,38.1-11,56.8c8.5,0,16.4,0.7,24.1-0.2
	C432.3,274,438.5,271.2,445.4,269z"/>
<path class="st21" d="M335.8,260.8c1.6-8.6,3.3-16.7,4.8-24.9c2.1-11.6-1-15.9-12.8-16.6c-7.5-0.4-15-0.2-22.5-0.2
	c-1.3,0-2.6,0-4.3,0c-5,25.8-10,51.4-15.1,77.2c-9.7,0-19.1,0-29.1,0c8.7-44.9,17.4-89.5,26.1-134.4c9.7,0,19.1,0,29.1,0
	c-2.2,11.7-4.4,23.2-6.7,35.3c2.1,0.1,3.8,0.2,5.5,0.2c11.8,0.4,23.8-0.3,35.4,1.3c21.3,3,28.3,13.3,24.5,34.4
	c-3.7,20.1-7.8,40.2-11.8,60.2c-0.2,1.2-2.1,3-3.3,3c-8.6,0.3-17.3,0.1-26.8,0.1C331.2,284.5,333.5,272.9,335.8,260.8z"/>
<path class="st22" d="M229,241.7c-0.4,2.6-0.7,4.7-1.2,6.8c-3.9,17.2-13.8,25.7-31.4,26.4c-7.9,0.3-15.9,0.1-24.2,0.1
	c3.7-18.8,7.3-37.3,10.8-55.8c9.8,0,19.3-0.7,28.7,0.2C225.7,220.6,229.8,226.4,229,241.7 M218.5,226.7c-9.5-0.8-19.1-1.7-28.6-2.4
	c-0.8-0.1-2.3,1.4-2.5,2.4c-2.8,14.1-5.5,28.3-8.2,42.5c5.7,0,11,0.3,16.2-0.1c17.2-1.2,23.8-6.9,27.3-23.5c0.5-2.4,1-4.9,1.1-7.4
	C223.9,234,223.7,229.6,218.5,226.7z"/>
<path class="st22" d="M445.1,269.2c-6.6,2.1-12.8,4.8-19.2,5.6c-7.7,0.9-15.6,0.2-24.1,0.2c3.6-18.7,7.2-37.1,11-56.8
	c11.4,0.7,22.8,0.9,34.1,2.3c6.9,0.9,11.4,5.8,11.7,13C459,247,456.5,259.6,445.1,269.2 M414.2,239.8c-1.8,9.7-3.7,19.5-5.6,29.9
	c10.5,0.2,20.4,1.1,29.4-3.3c4.3-2.1,8.7-6.2,10.5-10.5c2.7-6.2,3.5-13.4,4.4-20.2c0.7-5.1-2.2-9-7.3-9.6
	c-9.3-1.2-18.7-1.6-28.1-2.4C416.3,229.6,415.4,234.3,414.2,239.8z"/>
<path class="st23" d="M218.9,226.9c4.9,2.7,5,7.1,4.9,11.5c-0.1,2.5-0.5,5-1.1,7.4c-3.5,16.5-10.2,22.3-27.3,23.5
	c-5.2,0.4-10.5,0.1-16.2,0.1c2.7-14.2,5.4-28.4,8.2-42.5c0.2-1,1.7-2.5,2.5-2.4C199.4,225,209,225.9,218.9,226.9z"/>
<path class="st23" d="M414.3,239.4c1.1-5.1,2-9.8,3.2-15.8c9.4,0.8,18.8,1.3,28.1,2.4c5.2,0.6,8,4.5,7.3,9.6
	c-0.9,6.8-1.7,14-4.4,20.2c-1.9,4.3-6.2,8.4-10.5,10.5c-9,4.4-19,3.5-29.4,3.3C410.5,259.3,412.4,249.5,414.3,239.4z"/>
</svg>
