<?xml version="1.0" encoding="utf-8"?>
<!-- Generator: Adobe Illustrator 26.1.0, SVG Export Plug-In . SVG Version: 6.00 Build 0)  -->
<svg version="1.1" id="Layer_1" xmlns="http://www.w3.org/2000/svg" xmlns:xlink="http://www.w3.org/1999/xlink" x="0px" y="0px"
	 viewBox="0 0 468.2 482" style="enable-background:new 0 0 468.2 482;" xml:space="preserve">
	<style type="text/css">
		.st0POSTGRES{fill:#FBFCFC;}
		.st1POSTGRES{fill:#346791;}
		.st2POSTGRES{fill:#346892;}
		.st3POSTGRES{fill:#366992;}
		.st4POSTGRES{fill:#366993;}
		.st5POSTGRES{fill:#376A93;}
		.st6POSTGRES{fill:#FAFBFC;}
		.st7POSTGRES{fill:#F9FAFC;}
	</style>
	<path class="st0POSTGRES" d="M435.3,292.4c5.2-0.9,9.9-2,14.7-2.4c3.6-0.3,7.4-0.3,10.8,0.5c5.7,1.4,9.1,7,6.6,12.3
		c-2.5,5.2-6.1,10.4-10.5,14.1c-12.8,11.1-28,17.8-44.8,20.4c-14.2,2.2-28.4,3.2-43-0.3c-1.3,10.4-2.3,20.4-3.7,30.5
		c-2.7,19.8-5.2,39.6-8.2,59.3c-4.7,30.7-22.8,49.1-53,55.2c-8.9,1.8-18.2,2.8-27.2,2.4c-15.7-0.7-27.3-9.2-36-22.1
		c-9-13.5-11.8-28.8-12.6-44.6c-1.2-24.6-1.9-49.2-2.9-74c-0.8,0.6-1.9,1.3-3,2.1c-24.1,17.4-49.6,17.7-76.1,6.4
		c-2.5-1.1-4.8-3-6.7-5c-5.9-6-5.4-14.5,1.9-18.8c5.5-3.2,11.9-4.8,18-6.9c3.8-1.2,7.7-2,11.6-2.7c11.1-2,16.9-10.2,22.6-18.1
		c-9.4-2.5-18.6-5-28.9-7.8c-7.8,8.7-16.4,18.3-25,27.9c-6.7,7.5-12.8,15.4-20,22.3c-13,12.4-28.4,12.8-42.3,1.6
		c-4.2-3.4-8.1-7.5-11.5-11.8c-13.6-17.4-22.2-37.4-29.7-57.9C20.1,230.5,8.5,184.8,1.8,137.9c-3.4-23.6-2.1-47.2,5.4-70.1
		C18.5,33.1,43.1,14,78.5,8.3c35-5.6,68.5,1.5,101.6,12.4c2,0.7,5,0.8,6.7-0.2c20.9-12.8,43.7-16.6,67.6-14.7
		c8.1,0.6,16.1,2.4,24.2,3.4c2.4,0.3,4.9,0,7.2-0.6c36.7-10.4,73.4-12.5,110.1-0.2c21.2,7.1,39.1,19.5,54.5,35.8
		c10,10.7,14.5,23.2,15,37.5c1.3,31.8-5.9,62.2-15.4,92.1c-12.6,39.6-30.3,76.9-52.6,112c-0.8,1.2-1.5,2.5-2.5,4.2
		C408.2,296.2,421.5,294.3,435.3,292.4 M328.1,48.2c-25-19.1-53.3-28.3-84.6-28.3c-36.5,0-63.9,15.8-80.2,48.6
		c-6.1,12.4-9.9,26-13.8,39.4c-2.4,8.4-3.1,17.4-4.7,27.1c13.4-7.1,26.1-11.6,39.9-13.2c21.6-2.5,38.6,7.9,43.4,28
		c9.1,37.8,10.1,75.1-8.3,111c-4.4,8.5-6.9,17.9-10.3,26.8c1.1,0.5,1.4,0.8,1.7,0.8c19.2,0.9,30.8,13.6,30,32.8
		c-1.5,34.7-0.7,69.3,2.2,103.9c1,11.3,4.3,21.8,10.9,31.2c6.6,9.3,15.7,15,27.1,14.2c10.2-0.7,20.4-2.6,30.2-5.5
		c15.4-4.5,25-15.3,29-30.8c1-4,2.2-8.1,2.7-12.2c4.4-36,8.7-72,12.8-108.1c1.4-11.9,6.5-20.8,18.3-24.9c0.7-0.2,1.4-0.6,2.5-1.1
		c-3-4-6.4-7.4-8.5-11.4c-12.9-24.2-26.3-48.2-37.9-73c-5.5-11.7-8.5-24.9-10.6-37.7c-4-24.4,9.4-41.9,33.8-45.2
		c8.4-1.1,16.9-1,26.1-1.5C369.2,90.8,352.3,67.3,328.1,48.2 M131.4,175c-1.5-22.3-1.6-44.6,3-66.7c5.3-25.2,14-48.9,31-68.9
		c1.7-2,3.4-3.9,5.6-6.4c-32-9.6-63.6-16.1-96.4-9.2c-28,6-46.2,23.1-54.4,50.6c-5.8,19.5-7.3,39.5-4.4,59.4
		c7.6,52.2,20.3,103.1,40.4,152c6.3,15.3,13.4,30.2,24.6,42.6c12.4,13.7,22.4,13.4,34.5-0.7c8.8-10.2,17.7-20.4,26.6-30.6
		c3.9-4.4,7.9-8.8,12-13.3c-1.6-1.5-2.9-2.6-4-3.8c-16.2-16.9-22.8-37-21.1-60.2C129.8,205.2,130.5,190.6,131.4,175 M417.1,219.6
		c7.6-20.6,16-40.9,22.6-61.8c7.6-23.8,12.4-48.4,11.6-73.6c-0.3-8.5-0.7-17.5-6.8-24c-8.1-8.8-16.4-17.8-26.1-24.5
		c-29.4-20.5-62.8-24-97.5-19.8c-4.4,0.5-8.9,1.4-14.6,2.3c2,1.1,2.5,1.4,3.1,1.7c35.1,17,59.7,44.3,77.5,78.5
		c8.8,17,11.5,34.5,7.8,53.1c-3.9,19.5-3.5,39-0.7,58.6c3.1,21.1,2.2,41.9-8.7,61.2c-0.6,1,0.1,2.7,0.2,4.1c0.8,0.2,1.6,0.3,2.4,0.5
		C397.5,257.4,407.1,238.8,417.1,219.6 M207.2,253.7c16.8-32.2,15.2-65.8,7.2-99.8c-2.7-11.5-9.8-17.2-21.7-17.7
		c-17-0.7-31.9,5.7-45.8,14.7c-1.2,0.7-2,3-1.9,4.5c1.3,22.5,0.4,44.9-1.8,67.3c-2.1,21.8,6.1,39.8,23.8,53c8.4,6.3,18,9.6,28.2,9.4
		C199.2,274.5,203,264.4,207.2,253.7 M338.1,143.7c-5.7,8.4-5,17.7-3.1,27c4.3,21.6,14.4,41,24.7,60.2c5,9.5,10.2,18.9,15.4,28.6
		c0.6-1.2,1-2.1,1.4-3c5.7-14.2,5.3-29,3.5-43.8c-2.3-18.2-3.9-36.4-0.6-54.7c1.4-7.6,1.9-15.4,3-24.3c-7.5,0-13.9-0.4-20.3,0.1
		C353.2,134.4,344.6,135.8,338.1,143.7 M176.6,332.2c-8,2-16.1,4-24.1,5.9c-0.1,0.5-0.1,1.1-0.2,1.6c4.7,1.4,9.2,3.2,14,4.1
		c22.7,4.3,42.1-0.7,57.4-19.2c5.4-6.6,1.7-17.3-4.5-20.6c-3.9-2.1-7.3-1.9-10.3,1.6s-6.2,7-9,10.7
		C194.1,324.2,186.7,329.5,176.6,332.2 M412.2,322.7c13.4-2.2,25.1-7.9,35.2-16.9c-6.8,0.4-13.4,1.5-20.1,2.1
		c-14,1.2-28,1.7-40.6-6.4c-0.8-0.5-2.2-0.4-3.2-0.2c-9.1,1.9-12.5,6.2-13.1,15.5c-0.3,4.7,1.5,6.5,5.8,7.2
		C387.9,326.1,399.6,324.9,412.2,322.7 M448.8,304.8C448.8,304.8,448.9,305,448.8,304.8z"/>
	<path class="st1POSTGRES" d="M328.4,48.4c23.9,19,40.7,42.5,51.6,70.6c-9.2,0.5-17.7,0.3-26.1,1.5c-24.3,3.3-37.8,20.8-33.8,45.2
		c2.1,12.8,5.1,26,10.6,37.7c11.6,24.8,25,48.8,37.9,73c2.2,4,5.5,7.4,8.5,11.4c-1.1,0.5-1.7,0.9-2.5,1.1c-11.9,4.1-17,13-18.3,24.9
		c-4.2,36-8.5,72-12.8,108.1c-0.5,4.1-1.7,8.1-2.7,12.2c-4,15.6-13.6,26.4-29,30.8c-9.8,2.8-20.1,4.7-30.2,5.5
		c-11.4,0.8-20.4-4.8-27.1-14.2c-6.6-9.4-10-19.8-10.9-31.2c-2.9-34.6-3.7-69.2-2.2-103.9c0.8-19.1-10.7-31.9-30-32.8
		c-0.3,0-0.6-0.3-1.7-0.8c3.4-8.9,5.9-18.3,10.3-26.8c18.5-35.9,17.4-73.2,8.3-111c-4.8-20.1-21.8-30.5-43.4-28
		c-13.7,1.6-26.5,6.1-39.9,13.2c1.6-9.7,2.2-18.7,4.7-27.1c3.9-13.4,7.7-27,13.8-39.4c16.3-32.8,43.7-48.7,80.2-48.6
		C274.8,19.9,303.2,29,328.4,48.4z"/>
	<path class="st1POSTGRES" d="M131.4,175.4c-0.9,15.1-1.6,29.7-2.7,44.3c-1.7,23.2,4.8,43.4,21.1,60.2c1.2,1.2,2.4,2.3,4,3.8
		c-4.1,4.5-8.1,8.9-12,13.3c-8.9,10.2-17.8,20.3-26.6,30.6c-12.1,14-22.1,14.4-34.5,0.7c-11.2-12.4-18.4-27.3-24.6-42.6
		c-20.1-48.9-32.8-99.8-40.4-152c-2.9-19.9-1.4-39.9,4.4-59.4c8.2-27.5,26.4-44.7,54.4-50.6c32.7-7,64.4-0.4,96.4,9.2
		c-2.2,2.5-3.9,4.4-5.6,6.4c-17,20-25.6,43.7-31,68.9C129.7,130.4,129.9,152.6,131.4,175.4z"/>
	<path class="st2POSTGRES" d="M416.9,219.9c-9.8,18.9-19.4,37.5-29,56.1c-0.8-0.2-1.6-0.3-2.4-0.5c-0.1-1.4-0.8-3.1-0.2-4.1
		c10.9-19.3,11.8-40.1,8.7-61.2c-2.8-19.7-3.2-39.1,0.7-58.6c3.7-18.7,1-36.1-7.8-53.1C369.1,64.2,344.5,37,309.4,20
		c-0.6-0.3-1.1-0.6-3.1-1.7c5.7-0.9,10.1-1.7,14.6-2.3c34.7-4.2,68-0.7,97.5,19.8c9.7,6.7,18,15.7,26.1,24.4c6.1,6.5,6.5,15.5,6.8,24
		c0.8,25.3-4,49.8-11.6,73.6C433.1,178.7,424.7,199,416.9,219.9z"/>
	<path class="st2POSTGRES" d="M207,254c-4,10.4-7.8,20.5-11.9,31.2c-10.1,0.2-19.7-3.1-28.2-9.4c-17.7-13.2-25.9-31.2-23.8-53
		c2.2-22.5,3.1-44.8,1.8-67.3c-0.1-1.5,0.7-3.8,1.9-4.5c13.9-9,28.8-15.4,45.8-14.7c11.9,0.5,19,6.2,21.7,17.7
		C222.4,187.9,224,221.4,207,254 M192.7,160.8c5.6,1.4,10.1-0.7,13.8-4.8c2.8-3.1,2.3-6.2-1.1-8.4c-6.1-3.9-12.8-4.6-19.6-2.7
		c-4,1.1-5.5,4.5-3,7.7C185.2,155.8,188.9,157.9,192.7,160.8z"/>
	<path class="st3POSTGRES" d="M338.3,143.4c6.3-7.6,14.9-9,23.6-9.7c6.4-0.5,12.9-0.1,20.3-0.1c-1.1,9-1.6,16.7-3,24.3
		c-3.3,18.3-1.6,36.4,0.6,54.7c1.8,14.8,2.2,29.6-3.5,43.8c-0.4,0.9-0.8,1.8-1.4,3c-5.2-9.7-10.3-19.1-15.4-28.6
		c-10.2-19.2-20.4-38.5-24.7-60.2C333.1,161.4,332.4,152.2,338.3,143.4 M360.4,154.2c2.2-1.8,4.7-3.2,6.4-5.4c3.1-3.9,2.1-7-2.7-8
		c-5.9-1.3-11.6-0.5-16.8,2.6c-3.6,2.1-3.8,4.7-0.8,7.7C350.2,154.7,354.5,156.4,360.4,154.2z"/>
	<path class="st4POSTGRES" d="M177,332.1c9.8-2.6,17.2-7.9,22.9-15.7c2.8-3.7,5.9-7.2,9-10.7c3-3.5,6.3-3.6,10.3-1.6c6.2,3.3,10,14,4.5,20.6
		c-15.3,18.5-34.7,23.5-57.4,19.2c-4.8-0.9-9.3-2.7-14-4.1c0.1-0.5,0.1-1.1,0.2-1.6C160.5,336.2,168.6,334.2,177,332.1z"/>
	<path class="st5POSTGRES" d="M411.7,322.8c-12.1,2.1-23.8,3.2-35.6,1.2c-4.3-0.8-6.1-2.5-5.8-7.2c0.7-9.3,4-13.6,13.1-15.5
		c1-0.2,2.4-0.3,3.2,0.2c12.6,8.1,26.6,7.5,40.6,6.4c6.7-0.6,13.3-1.7,20.1-2.1C437.2,314.8,425.5,320.5,411.7,322.8z"/>
	<path class="st5POSTGRES" d="M448.8,304.9C448.9,305,448.8,304.8,448.8,304.9z"/>
	<path class="st6POSTGRES" d="M192.4,160.7c-3.5-2.7-7.1-4.9-9.6-8c-2.5-3.2-1-6.6,3-7.7c6.8-1.9,13.5-1.2,19.6,2.7c3.4,2.2,4,5.3,1.1,8.4
		C202.8,160.1,198.4,162.1,192.4,160.7z"/>
	<path class="st7POSTGRES" d="M360,154.4c-5.5,2-9.8,0.3-13.5-3.3c-3.1-3-2.8-5.5,0.8-7.7c5.2-3.1,10.9-3.9,16.8-2.6c4.8,1.1,5.8,4.1,2.7,8
		C365.1,151,362.6,152.5,360,154.4z"/>
</svg>
