<?xml version="1.0" encoding="utf-8"?>
<!-- Generator: Adobe Illustrator 26.1.0, SVG Export Plug-In . SVG Version: 6.00 Build 0)  -->
<svg version="1.1" id="Layer_1" xmlns="http://www.w3.org/2000/svg" xmlns:xlink="http://www.w3.org/1999/xlink" x="0px" y="0px"
	 viewBox="0 0 506.1 512" style="enable-background:new 0 0 506.1 512;" xml:space="preserve">
	<style type="text/css">
		.st0PYTHON{fill:#FFD43B;}
		.st1PYTHON{fill:#4280B2;}
		.st2PYTHON{fill:#4584B5;}
		.st3PYTHON{fill:#3772A2;}
		.st4PYTHON{fill:#3E7BAC;}
		.st5PYTHON{fill:#316A99;}
		.st6PYTHON{fill:#FFDF59;}
		.st7PYTHON{fill:#FFE873;}
		.st8PYTHON{fill:#FFDA4B;}
		.st9PYTHON{fill:#FFE468;}
		.st10PYTHON{fill:#FFE364;}
		.st11PYTHON{fill:#FFE160;}
		.st12PYTHON{fill:#4A8ABD;}
		.st13PYTHON{fill:#FFDD53;}
		.st14PYTHON{fill:#FFE05D;}
		.st15PYTHON{fill:#FFE66D;}
		.st16PYTHON{fill:#FFD744;}
		.st17PYTHON{fill:#FFD640;}
	</style>
	<path class="st0PYTHON" d="M226.1,513c-1.1-0.7-1.5-1.7-2.2-1.9c-1.8-0.5-3.7-0.6-5.8-1.4c1.3-2.1,2.8-4,4.6-5.3
		c18.9-13.6,37.8-27.2,56.8-40.5c6.5-4.6,13.3-8.6,20.1-12.5c0.7,2.4,1.4,4.4,2.1,6.3c3.9,11,15.9,17,26.8,13.3
		c9.6-3.3,17.7-14.9,16.2-23c-1.6-8.9-6-15.6-13.9-20.1c9.8-7.3,19.4-14.2,28.9-21.3c4.8-3.6,9.3-7.6,14-11.4
		c0.7,0.4,1.9,0.9,1.9,1.3c0.1,17.8,1.3,35.7-0.3,53.4c-1.6,17-11.9,29.8-26.2,39.1c-15.1,9.9-31.9,15.1-49.3,19
		c-5.8,1.3-11.8,2-17.7,3.1c-0.7,0.1-1.3,0.8-1.7,1.6C262.6,513,244.6,513,226.1,513z"/>
	<path class="st1PYTHON" d="M208.6,116.8c-15.4,0-30.7,0.1-46.5-0.3c0.1-2.3,0.4-4.4,1.4-5.8c3-4.1,6.6-7.8,9.7-11.9
		c3.6-4.8,7-9.8,10.8-14.7c2.5-0.3,4.7-0.2,6.7-0.8c10.5-3.1,15.3-10.2,16.4-23.4c1.7-1.2,3.3-2.2,4.5-3.5
		c13.5-15.8,27.1-31.6,40.5-47.5c1.9-2.3,3.1-5.3,4.6-7.9c11.4,0,22.7,0,34.5,0c1.4,0.7,2.2,1.7,3.2,1.9c2.1,0.5,4.3,0.6,6.9,1.4
		c0,1.5-0.2,2.5-0.8,3.2c-13.2,15.6-26.4,31.2-39.6,46.7c-14.7,17.2-29.5,34.2-44.2,51.4C213.7,109.1,211.3,113.1,208.6,116.8z"/>
	<path class="st2PYTHON" d="M256.1,1c-1,2.7-2.2,5.6-4.1,7.9c-13.4,16-26.9,31.7-40.4,47.5c-1.2,1.3-2.7,2.3-4.5,3.1
		c-1-10.3-11.4-21.3-23.4-21c3.8-4.9,7.4-9.6,11.1-14.2c5.6-7,11.2-14.1,16.8-21.2c0.9-0.5,1.7-1.1,2.3-1.9C227.6,1,241.6,1,256.1,1z
		"/>
	<path class="st3PYTHON" d="M347.7,18.9c20.2,14.1,29.9,33.3,27.5,58.7c-1,0.9-1.7,1.1-2.1,1.5c-11.4,13.4-22.7,26.8-34.1,40.3
		c-10.8,12.8-21.7,25.6-32.6,38.3c-10.5,12.2-21,24.4-31.4,36.7c-11,12.9-22.1,25.7-32.9,38.7c-3.8,4.6-7,9.8-10.5,14.8
		c-11.7,0.1-23.3,0.1-35,0.2c-23.2,0-43.3,7.9-59.2,24.9c-13.2,14-20.7,30.7-20.7,50.2c-0.1,17,0,34,0,51c0,1.8,0,3.6,0,5.9
		c-13.6,0-26.8-0.2-39.9,0c-11.4,0.2-22.2-1.7-32.3-7.5c2.3-2.4,4.7-4.3,6.6-6.5c13.6-15.8,27.2-31.7,40.7-47.7
		c16.2-19.1,32.2-38.3,48.5-57.3c16.7-19.5,33.6-38.9,50.3-58.4c17.3-20.1,34.4-40.3,51.6-60.6c3-3.5,5.7-7.2,8.5-10.8
		c0.7-0.8,1.4-1.6,2.4-2.9c1.5-1.4,2.7-2.3,3.6-3.4c4.1-4.8,8-9.7,12.1-14.5C279.5,98,290.2,85.6,301,73.2
		C316.5,55,332.1,36.9,347.7,18.9z"/>
	<path class="st4PYTHON" d="M250.1,131.1c-2.4,3.7-5.1,7.4-8.1,10.9c-17.2,20.2-34.3,40.4-51.6,60.6c-16.7,19.5-33.6,38.9-50.3,58.4
		c-16.2,19-32.3,38.2-48.5,57.3c-13.5,15.9-27,31.8-40.7,47.7c-1.9,2.3-4.4,4.1-6.9,6.3c-18.7-10.6-27.9-27.8-33.2-47.9
		c6.7-7.6,13.2-14.6,19.4-21.9c10.6-12.3,21-24.8,31.5-37.2c10.7-12.5,21.5-24.8,32.1-37.3c12.2-14.4,24.3-29,36.6-43.3
		c12.7-14.9,25.6-29.6,38.3-44.5c2.3-2.7,3.9-6,5.8-8.9C199.6,131.1,224.6,131.1,250.1,131.1z"/>
	<path class="st5PYTHON" d="M232.1,247.9c3-5,6.2-10.2,10.1-14.8c10.8-13,21.9-25.8,32.9-38.7c10.5-12.2,21-24.4,31.4-36.7
		c10.9-12.7,21.7-25.5,32.6-38.3c11.4-13.4,22.7-26.9,34.1-40.3c0.4-0.5,1.1-0.7,2-1.1c0.4,34.9,0.2,69.9,0.6,104.8
		c0.2,16-4.1,30.1-13.9,42.7c-8.9,11.5-20.7,18.1-34.5,21.3c-4.1,0.9-8.5,1-12.8,1.1C287.1,248,259.8,248,232.1,247.9z"/>
	<path class="st2PYTHON" d="M174.1,131.1c-1.5,3.1-3.1,6.3-5.4,9c-12.7,14.9-25.6,29.6-38.3,44.5c-12.3,14.4-24.3,28.9-36.6,43.3
		c-10.6,12.5-21.5,24.9-32.1,37.3c-10.6,12.4-20.9,24.8-31.5,37.2c-6.2,7.3-12.7,14.3-19.4,21.5c-3-12.1-6.2-24.1-8.1-36.4
		C1,276.4,0.6,265.1,0,253.4c1.8-1.5,3.5-2.3,4.6-3.6c6.2-7.1,12.1-14.5,18.3-21.6c10.7-12.5,21.4-24.8,32.1-37.3
		c12.8-15,25.6-30,38.2-45.1c3.8-4.6,7-9.8,10.4-14.7C126.9,131.1,150.3,131.1,174.1,131.1z"/>
	<path class="st6PYTHON" d="M140.6,472.1c-2.7-5.8-5.3-11.5-7.7-17.8c20.5-14.8,40.9-28.9,61.1-43.2c29.3-20.8,58.4-41.8,87.6-62.6
		c23-16.4,46.1-32.7,69.1-49.1c35.6-25.4,71.2-50.8,106.7-76.2c13.5-9.7,26.9-19.5,40.3-29.3c0.3,2.3,0.5,4.5,0.8,6.8
		c0.1,0.4,0.1,0.9,0.3,1.3c1.3,5,2.6,10.1,3.6,15.5c-2.1,1.5-4,2.3-5.7,3.5c-34.3,24.4-68.5,48.8-102.7,73.2
		c-12.8,9.2-25.6,18.4-38.5,27.5c-23.8,16.8-47.6,33.6-71.3,50.4c-3.3,2.3-6.3,5.1-9.4,7.7c-6.9,0-13.7,0-21,0c0,3.8,0,7-0.4,10.8
		c-1.6,1.1-2.9,1.6-3.9,2.4c-29.9,21.3-59.8,42.6-89.6,64.1C153.1,461.8,146.9,467.1,140.6,472.1z"/>
	<path class="st7PYTHON" d="M130.8,377c-0.1-18.7-1-37.4,0.1-56c1.3-23.6,16.7-45.2,39.4-54.1c7.4-2.9,15-4,22.9-4
		c31.8,0.1,63.7,0.1,95.9,0.5c-0.7,1.7-1.5,3.2-2.8,4.1c-24,17.2-48.1,34.3-72.2,51.5c-21.1,15-42.1,30.2-63.3,45.1
		C144.3,368.7,137.4,372.7,130.8,377z"/>
	<path class="st8PYTHON" d="M505.4,236c1.6,11.7,3.5,23.3,0.7,35.6c-4.1,2.6-8,4.6-11.4,7c-42.7,30.4-85.4,60.9-128,91.4
		c-4.2,3-8.1,6.6-12.1,9.8c-16.4,0.1-32.7,0.1-49.5-0.3c4.6-4.4,9.5-8.6,14.7-12.3c35.2-25.3,70.5-50.4,105.7-75.6
		c20.9-15,41.8-30,62.9-44.8C493.9,243,499.7,239.6,505.4,236z"/>
	<path class="st4PYTHON" d="M347.5,18.6c-15.4,18.3-31,36.4-46.6,54.5c-10.7,12.4-21.5,24.9-32.2,37.3c-4.1,4.8-8,9.7-12.1,14.5
		c-0.9,1.1-2.1,2-3.5,3c-0.3-3.4-0.3-6.9-0.3-11c-14.8,0-29,0-43.7-0.1c2.2-3.8,4.6-7.8,7.6-11.3c14.6-17.2,29.5-34.2,44.2-51.4
		c13.3-15.5,26.5-31.1,39.6-46.7c0.6-0.7,0.8-1.8,1.1-3c14.8,0.1,28.7,3.8,41.4,11.4C344.4,16.8,345.9,17.5,347.5,18.6z"/>
	<path class="st9PYTHON" d="M321.6,262.2c14.5-1.6,27.1-7.3,38.6-16.2c8.2-6.3,14.2-14.2,20.3-22.9c6.1-3.6,11.7-6.9,16.9-10.6
		c21.4-15.1,42.6-30.5,64-45.6c6.5-4.6,13.3-8.6,20-12.8c2,3.1,4,6.2,5.6,9.7c-2.2,1.4-4.3,2.2-6,3.4c-27.8,19.7-55.5,39.6-83.2,59.3
		c-27.8,19.8-55.6,39.5-83.3,59.3c-32.2,23-64.3,46-96.5,69c-23.1,16.5-46.2,33.1-69.4,49.5c-5.8,4.1-11.9,7.8-17.8,11.7
		c-0.1-5.4-0.1-10.7,0.3-16.6c2.8-2,5.3-3.4,7.6-5.1c30.1-21.5,60.2-43.1,90.4-64.5c27.9-19.9,55.8-39.6,83.6-59.5
		C315.8,267.9,318.6,264.9,321.6,262.2z"/>
	<path class="st10PYTHON" d="M130.7,416.5c6-4.3,12.1-8,17.9-12.2c23.2-16.4,46.3-33,69.4-49.5c32.2-23,64.3-46.1,96.5-69
		c27.7-19.8,55.5-39.5,83.3-59.3c27.8-19.8,55.5-39.6,83.2-59.3c1.7-1.2,3.8-2,6-3.1c1.7,3,3.1,6.1,4.2,9.7
		c-12.9,9.4-25.5,18.3-38.1,27.2c-27,19.3-54,38.7-81.1,58c-20.6,14.7-41.2,29.2-61.7,43.9c-29.5,21-58.9,42.1-88.3,63.2
		c-23.4,16.7-46.7,33.5-70.2,50c-6.9,4.9-14.1,9.3-21.1,13.9C130.7,425.6,130.7,421.3,130.7,416.5z"/>
	<path class="st11PYTHON" d="M130.7,430.5c7.1-5.1,14.3-9.5,21.2-14.4c23.5-16.6,46.8-33.3,70.2-50c29.5-21.1,58.9-42.2,88.3-63.2
		c20.6-14.7,41.2-29.2,61.7-43.9c27-19.3,54-38.7,81.1-58c12.6-9,25.2-17.8,38.2-26.9c1.6,3.6,2.9,7.4,3.8,11.6
		c-2.6,1.7-4.8,2.8-6.8,4.2c-30.2,21.5-60.3,43.1-90.5,64.6c-27.7,19.8-55.6,39.5-83.3,59.3c-32.2,23-64.3,46-96.5,69
		c-23.1,16.5-46.2,33.1-69.4,49.5c-5.8,4.1-11.9,7.8-17.8,11.7C130.7,439.6,130.7,435.3,130.7,430.5z"/>
	<path class="st12PYTHON" d="M103.1,131.1c-3,5-6.1,10.1-10,14.7C80.6,161,67.8,176,55,190.9c-10.6,12.5-21.4,24.8-32.1,37.3
		c-6.1,7.2-12.1,14.5-18.3,21.6c-1.1,1.3-2.8,2.1-4.5,3.1c0.7-11.1,1.2-22.3,2.8-33.3c1.6-10.3,4.1-20.5,6.7-30.5
		c7.4-28,28.6-51.2,58.5-56C79.5,131.4,91.1,131.7,103.1,131.1z"/>
	<path class="st13PYTHON" d="M505.5,235.6c-5.8,4-11.6,7.4-17.1,11.3c-21,14.8-41.9,29.8-62.9,44.8c-35.3,25.2-70.5,50.3-105.7,75.6
		c-5.2,3.7-10.1,7.9-15.1,12.3c-9.8,0.4-19.4,0.4-29.6,0.4c2.7-2.7,5.7-5.4,9-7.8c23.7-16.8,47.6-33.6,71.3-50.4
		c12.9-9.1,25.6-18.4,38.5-27.5c34.2-24.4,68.5-48.8,102.7-73.2c1.7-1.2,3.6-2,5.8-3.1C503.7,223.7,504.6,229.4,505.5,235.6z"/>
	<path class="st8PYTHON" d="M180.6,500.1c-8.2-4.1-16.5-8.3-24.7-13c0.6-1.2,1.1-1.9,1.7-2.4c17.2-12.3,34.4-24.5,51.6-36.7
		c22.8-16.2,45.5-32.3,68.2-48.5c1.4-1,2.1-2.8,3.2-4.3c13.7,0,27.4-0.1,41.5,0.3c-0.2,1.1-0.8,2-1.5,2.6c-9.3,6.7-18.6,13.4-27.9,20
		c-34.9,24.8-69.8,49.6-104.7,74.5C185.1,494.5,183,497.6,180.6,500.1z"/>
	<path class="st14PYTHON" d="M130.7,444.4c6-4.3,12.1-8,17.9-12.1c23.2-16.4,46.3-33,69.4-49.5c32.2-23,64.3-46.1,96.5-69
		c27.7-19.8,55.5-39.5,83.3-59.3c30.2-21.5,60.3-43.1,90.5-64.6c2-1.4,4.3-2.5,6.8-3.8c1.1,2.3,1.8,4.7,2.5,7.4
		c-13.4,10.1-26.8,20-40.3,29.6c-35.5,25.4-71.1,50.8-106.7,76.2c-23,16.4-46.1,32.7-69.1,49.1c-29.2,20.8-58.3,41.8-87.6,62.6
		c-20.2,14.3-40.5,28.5-61.1,42.8C131.9,451,131.2,447.9,130.7,444.4z"/>
	<path class="st15PYTHON" d="M321.2,262.1c-2.6,2.8-5.3,5.8-8.6,8.2c-27.8,19.9-55.7,39.7-83.6,59.5c-30.2,21.5-60.3,43.1-90.4,64.5
		c-2.3,1.6-4.8,3-7.5,4.6c-0.4-7-0.4-14-0.4-21.5c6.8-4.7,13.6-8.8,20.1-13.3C172,349.2,193,334,214.1,319
		c24.1-17.2,48.2-34.3,72.2-51.5c1.3-0.9,2.1-2.5,3.3-4c8.5-0.4,17-0.4,25.5-0.5C317,262.9,318.8,262.4,321.2,262.1z"/>
	<path class="st13PYTHON" d="M280.1,395.1c-0.6,1.5-1.4,3.3-2.7,4.3c-22.7,16.2-45.5,32.4-68.2,48.5c-17.2,12.2-34.4,24.5-51.6,36.7
		c-0.7,0.5-1.1,1.2-1.9,2.1c-5.1-4.5-10-9.3-15-14.3c6.2-5.3,12.4-10.6,18.9-15.4c29.8-21.5,59.7-42.8,89.6-64.1
		c1.1-0.8,2.3-1.2,3.9-1.9c0.4,1.1,0.5,2.2,0.7,4C262.4,395,271,395,280.1,395.1z"/>
	<path class="st16PYTHON" d="M180.7,500.5c2.3-2.9,4.4-5.9,7.2-8c34.8-24.9,69.8-49.7,104.7-74.5c9.3-6.6,18.6-13.3,27.9-20
		c0.8-0.6,1.3-1.4,2-2.5c9.1-0.4,18.1-0.4,27.5-0.1c-0.7,1.6-1.7,2.9-3,3.8c-4.4,3.2-9,6.2-13.5,9.4c-40.3,28.7-80.6,57.4-120.8,86.3
		c-4.6,3.3-8.8,7.2-13.2,10.9C193.4,504.2,187.1,502.5,180.7,500.5z"/>
	<path class="st7PYTHON" d="M389.8,196c0-21.4,0-42.8,0-64.8c1.3-0.1,2.8-0.2,4.2-0.2c14.5,0,28.9-0.1,43.4,0c10,0.1,19.5,2.1,28,7.9
		c0.9,0.6,2.1,0.9,3,1.9c-1.2,1.3-2.2,2.2-3.3,3c-20,14.4-40,28.8-60.2,43C400,190.2,394.8,192.9,389.8,196z"/>
	<path class="st12PYTHON" d="M211.2,3.1c-5.2,7.1-10.8,14.2-16.4,21.2c-3.7,4.6-7.4,9.2-11.5,14.2c-10,0.9-21.2,10.9-21,22.6
		c-0.3,0.4-0.2,0.7,0.2,1.2c0,0.8,0,1.2-0.4,1.7c-2.2,1-4.5,1.5-5.8,3c-6.5,7.5-12.7,15.3-19.3,22.8c-1.5,1.6-4.1,2.2-6.2,3.3
		c-0.1-11-0.8-22,0-33c1-13.3,3.6-26.4,14.3-35.9c7.3-6.6,15.9-11.2,25.3-13.3C183.7,7.7,197.3,5.6,211.2,3.1z"/>
	<path class="st17PYTHON" d="M404.6,379.8c-10.4,0.1-20.7,0.1-31.5-0.3c0.4-1.7,1.1-3.4,2.3-4.3c15.2-10.9,30.5-21.7,45.8-32.6
		c22.8-16.3,45.5-32.7,68.4-48.9c5.1-3.6,10.6-6.5,15.9-9.8c-1.3,7.3-2.6,14.6-3.9,22c-0.3,1.6-0.8,3.1-1.9,4.9
		c-2.3,1.1-4,1.7-5.5,2.8c-28.5,20.3-57,40.6-85.5,61C407,375.9,406,378.1,404.6,379.8z"/>
	<path class="st0PYTHON" d="M405.1,379.9c0.9-1.8,1.9-4,3.7-5.2c28.4-20.4,57-40.7,85.5-61c1.5-1,3.2-1.7,5.2-2.6
		c-5.6,20.4-11.9,40.7-27.6,56.2c-8.4,8.3-18.9,12-30.3,12.6C429.5,380.4,417.5,380,405.1,379.9z"/>
	<path class="st17PYTHON" d="M200,506c4-3.8,8.2-7.7,12.9-11.1c40.2-28.8,80.5-57.5,120.8-86.3c4.5-3.2,9-6.2,13.5-9.4
		c1.3-0.9,2.3-2.3,3.5-3.8c7.4-0.4,14.8-0.4,22.6-0.4c-4.2,3.9-8.7,7.9-13.5,11.4c-9.5,7.1-19.2,14-29.3,21.2
		c-5.7,0.3-11.4-1-15.9,0.6c-10,3.7-15.2,11.6-15,22.6c-6.7,4.3-13.5,8.3-20,12.9c-19,13.4-37.9,27-56.8,40.5c-1.8,1.3-3.3,3.2-5,5.1
		C211.8,508.6,206.1,507.4,200,506z"/>
	<path class="st15PYTHON" d="M389.6,196.4c5.2-3.4,10.5-6.2,15.2-9.6c20.1-14.2,40.1-28.7,60.2-43c1.1-0.8,2.1-1.6,3.4-2.6
		c4.5,4,8.8,8.1,13,12.5c-6.7,4.6-13.5,8.6-20,13.2c-21.4,15.1-42.6,30.5-64,45.6c-5.2,3.7-10.8,7-16.6,10.5
		C383.5,214.2,386.4,205.5,389.6,196.4z"/>
	<path class="st16PYTHON" d="M505.5,283.6c-5.4,3.7-10.9,6.6-16,10.2c-22.9,16.2-45.6,32.6-68.4,48.9c-15.2,10.9-30.6,21.6-45.8,32.6
		c-1.2,0.9-1.8,2.6-2.7,4.2c-5.7,0.4-11.4,0.5-17.6,0.4c3.6-3.4,7.4-6.9,11.7-9.9c42.6-30.5,85.3-61,128-91.4
		c3.5-2.5,7.3-4.4,11.3-6.6C506.1,275.7,505.9,279.4,505.5,283.6z"/>
	<path class="st2PYTHON" d="M130.7,93.5c2.2-1.5,4.8-2.1,6.3-3.7c6.6-7.4,12.8-15.3,19.3-22.8c1.3-1.5,3.6-2,5.9-2.6
		c2,11.8,9.9,19,21.5,19.8c-3.5,4.9-6.8,9.9-10.4,14.7c-3.1,4.1-6.6,7.8-9.7,11.9c-1.1,1.5-1.3,3.6-1.9,5.8
		c-10.1,0.4-20.2,0.4-31,0.4C130.6,109.1,130.6,101.5,130.7,93.5z"/>
	<path d="M299.5,451.4c-0.3-11.4,4.9-19.3,14.9-23c4.5-1.7,10.2-0.3,15.7-0.3c8.4,4.3,12.9,11,14.5,19.9c1.4,8.2-6.6,19.8-16.2,23
		c-10.9,3.7-22.9-2.2-26.8-13.3C300.9,455.7,300.2,453.8,299.5,451.4z"/>
	<path d="M184,84.1c-12-0.7-19.9-7.9-21.5-19.7c0-0.8,0-1.3,0-2.3c0-0.6-0.1-1.1-0.1-1.1c-0.4-11.6,10.9-21.6,20.8-22.1
		c12.4-0.6,22.9,10.4,23.5,20.7c-0.6,13.5-5.5,20.6-16,23.7C188.7,83.9,186.6,83.8,184,84.1z"/>
	<path class="st2PYTHON" d="M162.3,61.1c0.1-0.1,0.2,0.4,0.2,0.6C162.1,61.8,162,61.5,162.3,61.1z"/>
</svg>
